# Blender 3.4.1
# www.blender.org
mtllib buildings_with_streets_simplified.mtl
g buildings_with_streets_simplified_buildings_with_streets_simplified
v -166.271622 -0.173210 -206.138321
v -167.837585 0.020435 -190.564178
v -42.037651 0.021261 -38.903381
v -64.579056 0.021312 -140.160416
v -159.240173 0.021243 0.180764
v 93.760017 0.021276 -66.243484
v 91.732933 0.021279 -73.964371
v -161.267258 0.021246 -7.540116
v -74.192482 0.021303 -121.698273
v -53.780193 0.021261 -35.814514
v -65.962425 0.021330 -180.323303
v 12.214676 0.023341 -197.184311
v -65.961716 0.024341 -196.054794
v 8.975220 0.023350 -212.210373
v -82.219681 -0.010550 -181.958054
v -65.962425 0.021330 -180.323303
v -40.294933 0.021258 -31.027790
v -66.520233 0.021183 122.850906
v -51.961517 0.021258 -27.984831
v -50.722504 0.021183 124.375694
v -45.567993 0.021207 70.973503
v 25.419228 0.021216 52.542061
v 0.968402 0.021264 -41.881413
v 25.422802 -0.218904 52.541145
v 25.422806 10.000097 52.541145
v 2.351109 -0.218786 -36.556435
v 2.351109 10.000212 -36.556435
v 46.888287 -0.219897 47.042259
v 46.888287 10.000105 47.042259
v 23.734108 -0.219778 -42.092434
v 23.734108 10.000219 -42.092434
v 5.894878 -0.250821 80.403366
v 5.894880 10.000058 80.403366
v 0.429089 -0.218913 58.943871
v 0.429089 10.000090 58.943871
v 52.354107 -0.218922 68.501755
v 52.354107 10.000073 68.501755
v 46.888287 -0.217897 47.042259
v 46.888287 10.000105 47.042259
v -23.238892 -0.218945 87.939568
v -23.238892 52.124794 87.939629
v -28.765892 -0.218936 66.579567
v -28.765892 52.124828 66.579628
v 5.884708 -0.218922 80.403366
v 5.884708 52.124828 80.403427
v 0.429090 -0.250812 58.943871
v 0.429090 52.124828 58.943939
v 18.641109 -0.218774 -63.027431
v 18.641109 34.174324 -63.027401
v 5.956993 -0.219745 -113.098114
v 5.791107 34.134018 -113.057373
v 36.031109 -0.219766 -67.657433
v 36.031109 34.134758 -67.657372
v 23.271109 -0.219742 -117.347427
v 23.271109 34.111519 -117.347374
v -11.658891 -0.219739 -124.687439
v -11.658891 33.913517 -124.687370
v -24.418892 -0.219715 -174.447433
v -24.418892 34.010681 -174.447433
v 5.741109 -0.219736 -129.037430
v 5.741109 34.044250 -129.037430
v -7.098890 -0.219712 -178.887436
v -7.098891 33.902111 -178.887436
v -83.108894 -0.218915 21.802567
v -83.108894 34.430634 21.802614
v -79.498894 -0.218894 -15.607433
v -79.498894 34.405098 -15.607388
v -72.048889 -0.218915 22.813065
v -72.048889 34.439735 22.813112
v -68.588890 -0.218897 -14.527432
v -68.588890 34.415798 -14.527389
v -81.898895 -0.218924 40.822567
v -81.898895 28.707720 40.822598
v -80.058792 -0.218915 22.081268
v -80.058792 28.697235 22.081295
v -70.898994 -0.218924 41.833168
v -70.898994 28.710205 41.833199
v -69.098892 -0.218915 23.082565
v -69.098892 28.699734 23.082600
v -80.508888 -0.218942 78.712570
v -80.508888 23.001459 78.712570
v -76.928589 -0.218924 41.279167
v -76.928589 22.978504 41.279198
v -69.538895 -0.218942 79.762566
v -69.538895 23.028856 79.762566
v -65.898895 -0.218924 42.292568
v -65.898895 23.002502 42.292599
v -102.298889 -0.218882 -42.487434
v -102.298889 33.884827 -42.487404
v -96.108894 -0.218858 -93.577431
v -96.108894 33.874390 -93.577370
v -84.438889 -0.218882 -40.487434
v -84.438889 33.885628 -40.487404
v -78.218895 -0.218858 -91.577431
v -78.218895 34.194187 -91.577370
v -113.488892 -0.218846 -114.487434
v -113.488892 33.856617 -114.487373
v -107.268890 -0.218822 -165.637436
v -107.268890 33.874180 -165.637436
v -95.718895 -0.218849 -112.367432
v -95.718895 33.873619 -112.367371
v -89.498894 -0.218822 -163.517441
v -89.498894 33.899380 -163.517441
v -169.686279 -0.218819 -172.061630
v -169.686279 17.688995 -172.061630
v -168.230896 -0.218813 -186.651428
v -168.230896 18.224810 -186.651428
v -115.295189 -0.218822 -166.574432
v -115.295189 17.965279 -166.574432
v -113.847992 -0.218813 -181.202637
v -113.847992 18.306496 -181.202637
vn 0.0020 -1.0000 -0.0002
vn 0.0047 -0.9998 0.0217
vn 0.0014 -1.0000 0.0002
vn -0.0000 -1.0000 -0.0000
vn -0.9681 -0.0000 0.2507
vn -0.2506 -0.0000 -0.9681
vn 0.9679 -0.0000 -0.2514
vn 0.2482 -0.0000 0.9687
vn -0.0000 1.0000 -0.0000
vn -0.9691 -0.0000 0.2468
vn -0.2482 -0.0000 -0.9687
vn 0.9691 -0.0000 -0.2468
vn 0.0001 -1.0000 -0.0008
vn -0.9681 -0.0000 0.2505
vn -0.2530 -0.0000 -0.9675
vn 0.9692 -0.0000 -0.2464
vn 0.2505 -0.0000 0.9681
vn -0.0003 -1.0000 0.0008
vn -0.9690 -0.0025 0.2472
vn -0.2384 -0.0000 -0.9712
vn 0.9686 -0.0000 -0.2487
vn 0.2573 -0.0000 0.9663
vn 0.0015 1.0000 -0.0010
vn -0.9687 -0.0000 0.2484
vn -0.2483 -0.0000 -0.9687
vn 0.9684 -0.0000 -0.2494
vn 0.2425 -0.0000 0.9701
vn -0.0007 1.0000 -0.0003
vn -0.9954 -0.0000 -0.0961
vn 0.0985 -0.0000 -0.9951
vn 0.9957 -0.0000 0.0923
vn -0.0910 -0.0000 0.9959
vn -0.0008 1.0000 -0.0007
vn -0.9952 -0.0000 -0.0977
vn 0.0910 -0.0000 -0.9959
vn 0.9954 -0.0000 0.0956
vn -0.0915 -0.0000 0.9958
vn -0.0002 1.0000 -0.0006
vn -0.9955 -0.0000 -0.0952
vn 0.0915 -0.0000 -0.9958
vn 0.9953 -0.0000 0.0967
vn -0.0953 -0.0000 0.9955
vn -0.0023 1.0000 -0.0009
vn -0.9927 -0.0000 -0.1203
vn 0.1111 -0.0000 -0.9938
vn 0.9927 -0.0000 0.1209
vn -0.1113 -0.0000 0.9938
vn -0.0092 1.0000 0.0018
vn -0.9927 -0.0000 -0.1207
vn 0.1185 -0.0000 -0.9930
vn 0.9927 -0.0000 0.1207
vn -0.1185 -0.0000 0.9930
vn -0.0012 1.0000 0.0003
vn -0.9951 -0.0000 -0.0993
vn 0.0997 -0.0000 -0.9950
vn 0.9951 -0.0000 0.0985
vn -0.1004 -0.0000 0.9949
vn -0.0062 0.9995 0.0294
vn 0.0003 -1.0000 0.0056
vt 0.000000 0.000000
vt 0.000000 0.000000
vt 0.000000 0.000000
vt 0.000000 1.000000
vt 0.000000 0.000000
vt 0.000000 0.000000
vt 0.000000 0.000000
vt 0.000000 0.000000
vt 0.000000 1.000000
vt 0.000000 0.000000
vt 0.000000 0.000000
vt 0.000000 0.000000
vt 0.000000 0.000000
vt 0.000000 0.000000
vt 0.000000 0.000000
vt 0.000000 0.000000
vt 0.000000 0.000000
vt 0.000000 0.000000
vt 0.000000 0.000000
vt 0.000000 0.000000
vt 0.000000 0.000000
vt 0.000000 0.000000
vt 0.000000 0.000000
vt 0.375000 0.000000
vt 0.375000 1.000000
vt 0.125000 0.750000
vt 0.625000 0.000000
vt 0.625000 1.000000
vt 0.875000 0.750000
vt 0.375000 0.250000
vt 0.125000 0.500000
vt 0.625000 0.250000
vt 0.875000 0.500000
vt 0.375000 0.750000
vt 0.625000 0.750000
vt 0.375000 0.500000
vt 0.625000 0.500000
vt 0.375000 0.000000
vt 0.375000 1.000000
vt 0.125000 0.750000
vt 0.625000 0.000000
vt 0.625000 1.000000
vt 0.875000 0.750000
vt 0.375000 0.250000
vt 0.125000 0.500000
vt 0.625000 0.250000
vt 0.875000 0.500000
vt 0.375000 0.750000
vt 0.625000 0.750000
vt 0.375000 0.500000
vt 0.625000 0.500000
vt 0.375000 0.000000
vt 0.375000 1.000000
vt 0.125000 0.750000
vt 0.625000 0.000000
vt 0.625000 1.000000
vt 0.875000 0.750000
vt 0.375000 0.250000
vt 0.125000 0.500000
vt 0.625000 0.250000
vt 0.875000 0.500000
vt 0.375000 0.750000
vt 0.625000 0.750000
vt 0.375000 0.500000
vt 0.625000 0.500000
vt 0.375000 0.000000
vt 0.375000 1.000000
vt 0.125000 0.750000
vt 0.625000 0.000000
vt 0.625000 1.000000
vt 0.875000 0.750000
vt 0.375000 0.250000
vt 0.125000 0.500000
vt 0.625000 0.250000
vt 0.875000 0.500000
vt 0.375000 0.750000
vt 0.625000 0.750000
vt 0.375000 0.500000
vt 0.625000 0.500000
vt 0.375000 0.000000
vt 0.375000 1.000000
vt 0.125000 0.750000
vt 0.625000 0.000000
vt 0.625000 1.000000
vt 0.875000 0.750000
vt 0.375000 0.250000
vt 0.125000 0.500000
vt 0.625000 0.250000
vt 0.875000 0.500000
vt 0.375000 0.750000
vt 0.625000 0.750000
vt 0.375000 0.500000
vt 0.625000 0.500000
vt 0.375000 0.000000
vt 0.375000 1.000000
vt 0.125000 0.750000
vt 0.625000 0.000000
vt 0.625000 1.000000
vt 0.875000 0.750000
vt 0.375000 0.250000
vt 0.125000 0.500000
vt 0.625000 0.250000
vt 0.875000 0.500000
vt 0.375000 0.750000
vt 0.625000 0.750000
vt 0.375000 0.500000
vt 0.625000 0.500000
vt 0.375000 0.000000
vt 0.375000 1.000000
vt 0.125000 0.750000
vt 0.625000 0.000000
vt 0.625000 1.000000
vt 0.875000 0.750000
vt 0.375000 0.250000
vt 0.125000 0.500000
vt 0.625000 0.250000
vt 0.875000 0.500000
vt 0.375000 0.750000
vt 0.625000 0.750000
vt 0.375000 0.500000
vt 0.625000 0.500000
vt 0.375000 0.000000
vt 0.375000 1.000000
vt 0.125000 0.750000
vt 0.625000 0.000000
vt 0.625000 1.000000
vt 0.875000 0.750000
vt 0.375000 0.250000
vt 0.125000 0.500000
vt 0.625000 0.250000
vt 0.875000 0.500000
vt 0.375000 0.750000
vt 0.625000 0.750000
vt 0.375000 0.500000
vt 0.625000 0.500000
vt 0.375000 0.000000
vt 0.375000 1.000000
vt 0.125000 0.750000
vt 0.625000 0.000000
vt 0.625000 1.000000
vt 0.875000 0.750000
vt 0.375000 0.250000
vt 0.125000 0.500000
vt 0.625000 0.250000
vt 0.875000 0.500000
vt 0.375000 0.750000
vt 0.625000 0.750000
vt 0.375000 0.500000
vt 0.625000 0.500000
vt 0.375000 0.000000
vt 0.375000 1.000000
vt 0.125000 0.750000
vt 0.625000 0.000000
vt 0.625000 1.000000
vt 0.875000 0.750000
vt 0.375000 0.250000
vt 0.125000 0.500000
vt 0.625000 0.250000
vt 0.875000 0.500000
vt 0.375000 0.750000
vt 0.625000 0.750000
vt 0.375000 0.500000
vt 0.625000 0.500000
vt 0.375000 0.000000
vt 0.375000 1.000000
vt 0.125000 0.750000
vt 0.625000 0.000000
vt 0.625000 1.000000
vt 0.875000 0.750000
vt 0.375000 0.250000
vt 0.125000 0.500000
vt 0.625000 0.250000
vt 0.875000 0.500000
vt 0.375000 0.750000
vt 0.625000 0.750000
vt 0.375000 0.500000
vt 0.625000 0.500000
s 0
g streets
f 15/15/1 13/13/1 16/16/1
f 12/12/2 11/11/2 13/13/2 14/14/2
f 4/4/3 9/9/3 15/15/3 16/16/3
f 10/10/4 9/9/4 4/4/4 3/3/4
f 18/18/4 19/19/4 17/17/4 21/21/4 20/20/4
g platz
f 22/22/4 21/21/4 17/17/4 23/23/4
g streets
f 10/10/4 3/3/4 17/17/4 19/19/4
f 8/8/4 10/10/4 19/19/4 5/5/4
f 7/7/4 6/6/4 17/17/4 3/3/4
g surfaces_east
f 24/24/5 25/27/5 27/32/5 26/30/5
g surfaces_north
f 26/30/6 27/32/6 31/37/6 30/36/6
g surfaces_west
f 30/36/7 31/37/7 29/35/7 28/34/7
g surfaces_top
f 28/34/8 29/35/8 25/28/8 24/25/8
g surfaces_ground
f 26/31/4 30/36/4 28/34/4 24/26/4
g surfaces_top
f 31/37/9 27/33/9 25/29/9 29/35/9
f 32/38/10 33/41/10 35/46/10 34/44/10
g surfaces_north
f 34/44/11 35/46/11 39/51/11 38/50/11
g surfaces_west
f 38/50/12 39/51/12 37/49/12 36/48/12
g surfaces_south
f 36/48/8 37/49/8 33/42/8 32/39/8
g surfaces_ground
f 34/45/13 38/50/13 36/48/13 32/40/13
g surfaces_top
f 39/51/9 35/47/9 33/43/9 37/49/9
g surfaces_east
f 40/52/14 41/55/14 43/60/14 42/58/14
g surfaces_north
f 42/58/15 43/60/15 47/65/15 46/64/15
g surfaces_west
f 46/64/16 47/65/16 45/63/16 44/62/16
g surfaces_south
f 44/62/17 45/63/17 41/56/17 40/53/17
g surfaces_ground
f 42/59/18 46/64/18 44/62/18 40/54/18
g surfaces_top
f 47/65/9 43/61/9 41/57/9 45/63/9
g surfaces_east
f 48/66/19 49/69/19 51/74/19 50/72/19
g surfaces_north
f 50/72/20 51/74/20 55/79/20 54/78/20
g surfaces_west
f 54/78/21 55/79/21 53/77/21 52/76/21
g surfaces_south
f 52/76/22 53/77/22 49/70/22 48/67/22
g surfaces_ground
f 50/73/4 54/78/4 52/76/4 48/68/4
g surfaces_top
f 55/79/23 51/75/23 49/71/23 53/77/23
g surfaces_east
f 56/80/24 57/83/24 59/88/24 58/86/24
g surfaces_north
f 58/86/25 59/88/25 63/93/25 62/92/25
g surfaces_west
f 62/92/26 63/93/26 61/91/26 60/90/26
g surfaces_south
f 60/90/27 61/91/27 57/84/27 56/81/27
g surfaces_ground
f 58/87/4 62/92/4 60/90/4 56/82/4
g surfaces_top
f 63/93/28 59/89/28 57/85/28 61/91/28
g surfaces_east
f 64/94/29 65/97/29 67/102/29 66/100/29
g surfaces_north
f 66/100/30 67/102/30 71/107/30 70/106/30
g surfaces_west
f 70/106/31 71/107/31 69/105/31 68/104/31
g surfaces_south
f 68/104/32 69/105/32 65/98/32 64/95/32
g surfaces_ground
f 66/101/4 70/106/4 68/104/4 64/96/4
g surfaces_top
f 71/107/33 67/103/33 65/99/33 69/105/33
g surfaces_east
f 72/108/34 73/111/34 75/116/34 74/114/34
g surfaces_north
f 74/114/35 75/116/35 79/121/35 78/120/35
g surfaces_west
f 78/120/36 79/121/36 77/119/36 76/118/36
g surfaces_south
f 76/118/37 77/119/37 73/112/37 72/109/37
g surfaces_ground
f 74/115/4 78/120/4 76/118/4 72/110/4
g surfaces_top
f 79/121/38 75/117/38 73/113/38 77/119/38
g surfaces_east
f 80/122/39 81/125/39 83/130/39 82/128/39
g surfaces_north
f 82/128/40 83/130/40 87/135/40 86/134/40
g surfaces_west
f 86/134/41 87/135/41 85/133/41 84/132/41
g surfaces_south
f 84/132/42 85/133/42 81/126/42 80/123/42
g surfaces_ground
f 82/129/4 86/134/4 84/132/4 80/124/4
g surfaces_top
f 87/135/43 83/131/43 81/127/43 85/133/43
g surfaces_east
f 88/136/44 89/139/44 91/144/44 90/142/44
g surfaces_north
f 90/142/45 91/144/45 95/149/45 94/148/45
g surfaces_west
f 94/148/46 95/149/46 93/147/46 92/146/46
g surfaces_south
f 92/146/47 93/147/47 89/140/47 88/137/47
g surfaces_ground
f 90/143/4 94/148/4 92/146/4 88/138/4
g surfaces_top
f 95/149/48 91/145/48 89/141/48 93/147/48
g surfaces_east
f 96/150/49 97/153/49 99/158/49 98/156/49
g surfaces_north
f 98/156/50 99/158/50 103/163/50 102/162/50
g surfaces_west
f 102/162/51 103/163/51 101/161/51 100/160/51
g surfaces_south
f 100/160/52 101/161/52 97/154/52 96/151/52
g surfaces_ground
f 98/157/4 102/162/4 100/160/4 96/152/4
g surfaces_top
f 103/163/53 99/159/53 97/155/53 101/161/53
g surfaces_east
f 104/164/54 105/167/54 107/172/54 106/170/54
g surfaces_north
f 106/170/55 107/172/55 111/177/55 110/176/55
g surfaces_top
f 110/176/56 111/177/56 109/175/56 108/174/56
g surfaces_south
f 108/174/57 109/175/57 105/168/57 104/165/57
g surfaces_ground
f 106/171/4 110/176/4 108/174/4 104/166/4
g surfaces_top
f 111/177/58 107/173/58 105/169/58 109/175/58
g streets
f 2/2/59 1/1/59 13/13/59 15/15/59
l 6 23
