solid Exported from Blender-3.4.1
facet normal 0.001980 0.000192 -0.999998
outer loop
vertex -82.219681 181.958054 -0.010490
vertex -65.961716 196.054794 0.024405
vertex -65.962425 180.323303 0.021388
endloop
endfacet
facet normal -0.000016 0.000192 -1.000000
outer loop
vertex 6.326037 195.914261 0.023253
vertex -65.962425 180.323303 0.021388
vertex -65.961716 196.054794 0.024405
endloop
endfacet
facet normal -0.000016 0.000013 -1.000000
outer loop
vertex 6.326037 195.914261 0.023253
vertex -65.961716 196.054794 0.024405
vertex 3.092654 210.942169 0.023496
endloop
endfacet
facet normal 0.000809 -0.000420 -1.000000
outer loop
vertex -64.579056 140.160416 0.021358
vertex -74.192482 121.698273 0.021343
vertex -82.219681 181.958054 -0.010490
endloop
endfacet
facet normal 0.001968 0.000069 -0.999998
outer loop
vertex -64.579056 140.160416 0.021358
vertex -82.219681 181.958054 -0.010490
vertex -65.962425 180.323303 0.021388
endloop
endfacet
facet normal -0.000000 0.000001 -1.000000
outer loop
vertex -53.780193 35.814514 0.021273
vertex -74.192482 121.698273 0.021343
vertex -64.579056 140.160416 0.021358
endloop
endfacet
facet normal -0.000000 0.000001 -1.000000
outer loop
vertex -53.780193 35.814514 0.021273
vertex -64.579056 140.160416 0.021358
vertex -42.037651 38.903381 0.021273
endloop
endfacet
facet normal 0.000000 0.000001 -1.000000
outer loop
vertex -50.722504 -124.375694 0.021143
vertex -66.520233 -122.850906 0.021143
vertex -51.961517 27.984831 0.021268
endloop
endfacet
facet normal -0.000000 0.000001 -1.000000
outer loop
vertex -51.961517 27.984831 0.021268
vertex -40.294933 31.027790 0.021268
vertex -41.349545 10.627531 0.021251
endloop
endfacet
facet normal 0.001953 -0.000019 -0.999998
outer loop
vertex -42.404156 -9.772728 0.021234
vertex -43.458767 -30.172987 0.021217
vertex -44.513382 -50.573242 0.021200
endloop
endfacet
facet normal -0.000000 0.000001 -1.000000
outer loop
vertex -51.961517 27.984831 0.021268
vertex -41.349545 10.627531 0.021251
vertex -42.404156 -9.772728 0.021234
endloop
endfacet
facet normal -0.000001 0.000001 -1.000000
outer loop
vertex -45.567993 -70.973503 0.021183
vertex -50.722504 -124.375694 0.021143
vertex -51.961517 27.984831 0.021268
endloop
endfacet
facet normal -0.000000 0.000001 -1.000000
outer loop
vertex -51.961517 27.984831 0.021268
vertex -42.404156 -9.772728 0.021234
vertex -44.513382 -50.573242 0.021200
endloop
endfacet
facet normal -0.000000 0.000001 -1.000000
outer loop
vertex -51.961517 27.984831 0.021268
vertex -44.513382 -50.573242 0.021200
vertex -45.567993 -70.973503 0.021183
endloop
endfacet
facet normal 0.248109 -0.968732 -0.000153
outer loop
vertex 5.894880 -80.403366 10.000031
vertex 5.884708 -80.403366 -6.593703
vertex 52.354107 -68.501755 -6.593703
endloop
endfacet
facet normal 0.248160 -0.968719 0.000000
outer loop
vertex 5.894880 -80.403366 10.000031
vertex 52.354107 -68.501755 -6.593703
vertex 52.354107 -68.501755 10.000051
endloop
endfacet
facet normal -0.000000 0.000001 -1.000000
outer loop
vertex -53.780193 35.814514 0.021273
vertex -42.037651 38.903381 0.021273
vertex -40.294933 31.027790 0.021268
endloop
endfacet
facet normal -0.000000 0.000001 -1.000000
outer loop
vertex -53.780193 35.814514 0.021273
vertex -40.294933 31.027790 0.021268
vertex -51.961517 27.984831 0.021268
endloop
endfacet
facet normal 0.000000 0.000001 -1.000000
outer loop
vertex -159.240173 8.184850 0.021249
vertex -53.780193 35.814514 0.021273
vertex -51.961517 27.984831 0.021268
endloop
endfacet
facet normal 0.000000 0.000001 -1.000000
outer loop
vertex -159.240173 8.184850 0.021249
vertex -51.961517 27.984831 0.021268
vertex -157.185440 0.358696 0.021243
endloop
endfacet
facet normal 0.000000 0.000001 -1.000000
outer loop
vertex 38.026249 59.887959 0.021292
vertex 40.018154 52.131073 0.021285
vertex -40.294933 31.027790 0.021268
endloop
endfacet
facet normal 0.000000 0.000001 -1.000000
outer loop
vertex 38.026249 59.887959 0.021292
vertex -40.294933 31.027790 0.021268
vertex -42.037651 38.903381 0.021273
endloop
endfacet
facet normal -0.248161 0.968719 0.000000
outer loop
vertex 0.429090 -58.943886 10.000071
vertex 25.422806 -52.541145 10.000080
vertex 25.422804 -52.541145 0.021189
endloop
endfacet
facet normal -0.248160 0.968719 0.000001
outer loop
vertex 0.429090 -58.943886 10.000071
vertex 25.422804 -52.541145 0.021189
vertex 0.429090 -58.943874 0.021195
endloop
endfacet
facet normal -0.250634 0.968082 0.000000
outer loop
vertex 23.734108 42.092434 -6.593703
vertex 2.351109 36.556435 -6.593704
vertex 2.351109 36.556435 0.021278
endloop
endfacet
facet normal -0.250634 0.968082 0.000000
outer loop
vertex 2.351109 36.556435 0.021278
vertex 2.351109 36.556435 10.000223
vertex 23.734108 42.092434 10.000233
endloop
endfacet
facet normal -0.250634 0.968082 0.000000
outer loop
vertex 2.351109 36.556435 0.021278
vertex 23.734108 42.092434 10.000233
vertex 23.734108 42.092434 -6.593703
endloop
endfacet
facet normal 0.967878 0.251422 0.000000
outer loop
vertex 23.734108 42.092434 -6.593703
vertex 23.734108 42.092434 10.000233
vertex 46.888287 -47.042259 10.000090
endloop
endfacet
facet normal 0.967878 0.251422 0.000000
outer loop
vertex 23.734108 42.092434 -6.593703
vertex 46.888287 -47.042259 10.000090
vertex 46.888287 -47.042259 -6.593703
endloop
endfacet
facet normal -0.968070 -0.250680 0.000000
outer loop
vertex 25.422806 -52.541145 10.000080
vertex 2.351109 36.556435 10.000223
vertex 2.351109 36.556435 0.021278
endloop
endfacet
facet normal -0.005208 -0.000374 0.999986
outer loop
vertex 6.965447 18.736919 0.021260
vertex 11.579786 0.917404 0.021242
vertex 16.194126 -16.902111 0.021225
endloop
endfacet
facet normal -0.968070 -0.250680 0.000001
outer loop
vertex 25.422806 -52.541145 10.000080
vertex 2.351109 36.556435 0.021278
vertex 6.965447 18.736919 0.021260
endloop
endfacet
facet normal -0.968070 -0.250681 0.000000
outer loop
vertex 20.808464 -34.721626 0.021207
vertex 25.422804 -52.541145 0.021189
vertex 25.422806 -52.541145 10.000080
endloop
endfacet
facet normal -0.000977 -0.000139 -1.000000
outer loop
vertex 6.965447 18.736919 0.021260
vertex 16.194126 -16.902111 0.021225
vertex 20.808464 -34.721626 0.021207
endloop
endfacet
facet normal -0.968070 -0.250680 0.000000
outer loop
vertex 6.965447 18.736919 0.021260
vertex 20.808464 -34.721626 0.021207
vertex 25.422806 -52.541145 10.000080
endloop
endfacet
facet normal 0.000000 0.000000 -1.000000
outer loop
vertex 2.351109 36.556435 -6.593704
vertex 23.734108 42.092434 -6.593703
vertex 46.888287 -47.042259 -6.593703
endloop
endfacet
facet normal 0.000000 -0.000000 -1.000000
outer loop
vertex 2.351109 36.556435 -6.593704
vertex 46.888287 -47.042259 -6.593703
vertex 25.422802 -52.541145 -6.593703
endloop
endfacet
facet normal 0.000000 -0.000002 1.000000
outer loop
vertex 23.734108 42.092434 10.000233
vertex 2.351109 36.556435 10.000223
vertex 25.422806 -52.541145 10.000080
endloop
endfacet
facet normal -0.000000 -0.000002 1.000000
outer loop
vertex 23.734108 42.092434 10.000233
vertex 25.422806 -52.541145 10.000080
vertex 46.888287 -47.042259 10.000090
endloop
endfacet
facet normal 0.000000 0.000000 -1.000000
outer loop
vertex 25.422802 -52.541145 -6.593703
vertex 46.888287 -47.042259 -6.593703
vertex 52.354107 -68.501755 -6.593703
endloop
endfacet
facet normal 0.000000 0.000000 -1.000000
outer loop
vertex 52.354107 -68.501755 -6.593703
vertex 5.884708 -80.403366 -6.593703
vertex 0.429090 -58.943871 -6.593703
endloop
endfacet
facet normal -0.000000 0.000000 -1.000000
outer loop
vertex 52.354107 -68.501755 -6.593703
vertex 0.429090 -58.943871 -6.593703
vertex 25.422802 -52.541145 -6.593703
endloop
endfacet
facet normal -0.968115 -0.250504 -0.000000
outer loop
vertex -28.765892 -66.579567 -6.593703
vertex -23.238892 -87.939568 -6.593703
vertex -23.238892 -87.939644 52.124763
endloop
endfacet
facet normal -0.968116 -0.250504 -0.000000
outer loop
vertex -23.238892 -87.939644 52.124763
vertex -28.765892 -66.579643 52.124805
vertex -28.765892 -66.579575 0.021188
endloop
endfacet
facet normal -0.968115 -0.250505 -0.000000
outer loop
vertex -23.238892 -87.939644 52.124763
vertex -28.765892 -66.579575 0.021188
vertex -28.765892 -66.579567 -6.593703
endloop
endfacet
facet normal -0.999989 -0.004695 -0.000000
outer loop
vertex 0.429090 -58.943954 52.124805
vertex 0.429090 -58.943886 10.000071
vertex 0.429090 -58.943874 0.021195
endloop
endfacet
facet normal -0.253031 0.967458 0.000001
outer loop
vertex 0.429090 -58.943874 0.021195
vertex -28.765892 -66.579575 0.021188
vertex -28.765892 -66.579643 52.124805
endloop
endfacet
facet normal -0.253030 0.967458 0.000002
outer loop
vertex 0.429090 -58.943874 0.021195
vertex -28.765892 -66.579643 52.124805
vertex 0.429090 -58.943954 52.124805
endloop
endfacet
facet normal 0.250515 -0.968113 -0.000001
outer loop
vertex 5.884708 -80.403366 -6.593703
vertex 5.884708 -80.403442 52.124805
vertex -23.238892 -87.939644 52.124763
endloop
endfacet
facet normal 0.250515 -0.968113 -0.000002
outer loop
vertex 5.884708 -80.403366 -6.593703
vertex -23.238892 -87.939644 52.124763
vertex -23.238892 -87.939568 -6.593703
endloop
endfacet
facet normal 0.000000 0.000000 -1.000000
outer loop
vertex -28.765892 -66.579567 -6.593703
vertex 0.429090 -58.943871 -6.593703
vertex 5.884708 -80.403366 -6.593703
endloop
endfacet
facet normal 0.000000 0.000000 -1.000000
outer loop
vertex -28.765892 -66.579567 -6.593703
vertex 5.884708 -80.403366 -6.593703
vertex -23.238892 -87.939568 -6.593703
endloop
endfacet
facet normal 0.000000 -0.000002 1.000000
outer loop
vertex 0.429090 -58.943954 52.124805
vertex -28.765892 -66.579643 52.124805
vertex -23.238892 -87.939644 52.124763
endloop
endfacet
facet normal -0.000001 -0.000000 1.000000
outer loop
vertex 0.429090 -58.943954 52.124805
vertex -23.238892 -87.939644 52.124763
vertex 5.884708 -80.403442 52.124805
endloop
endfacet
facet normal -0.968562 -0.248771 -0.000000
outer loop
vertex 18.641109 63.027431 -6.593703
vertex 18.641109 63.027393 34.174347
vertex 5.791107 113.057358 34.134056
endloop
endfacet
facet normal -0.969371 -0.245565 -0.004194
outer loop
vertex 18.641109 63.027431 -6.593703
vertex 5.791107 113.057358 34.134056
vertex 5.956993 113.098114 -6.593703
endloop
endfacet
facet normal -0.238350 0.971179 0.000001
outer loop
vertex 5.956993 113.098114 -6.593703
vertex 5.791107 113.057358 34.134056
vertex 23.271109 117.347359 34.111557
endloop
endfacet
facet normal -0.238351 0.971179 0.000002
outer loop
vertex 5.956993 113.098114 -6.593703
vertex 23.271109 117.347359 34.111557
vertex 23.271109 117.347427 -6.593704
endloop
endfacet
facet normal 0.968575 0.248722 0.000000
outer loop
vertex 23.271109 117.347427 -6.593704
vertex 23.271109 117.347359 34.111557
vertex 36.031109 67.657356 34.134781
endloop
endfacet
facet normal 0.968575 0.248722 0.000000
outer loop
vertex 23.271109 117.347427 -6.593704
vertex 36.031109 67.657356 34.134781
vertex 36.031109 67.657433 -6.593704
endloop
endfacet
facet normal 0.257280 -0.966337 -0.000002
outer loop
vertex 36.031109 67.657433 -6.593704
vertex 36.031109 67.657356 34.134781
vertex 18.641109 63.027393 34.174347
endloop
endfacet
facet normal 0.257282 -0.966336 -0.000001
outer loop
vertex 36.031109 67.657433 -6.593704
vertex 18.641109 63.027393 34.174347
vertex 18.641109 63.027431 -6.593703
endloop
endfacet
facet normal -0.000000 -0.000000 -1.000000
outer loop
vertex 5.956993 113.098114 -6.593703
vertex 23.271109 117.347427 -6.593704
vertex 36.031109 67.657433 -6.593704
endloop
endfacet
facet normal -0.000000 -0.000000 -1.000000
outer loop
vertex 5.956993 113.098114 -6.593703
vertex 36.031109 67.657433 -6.593704
vertex 18.641109 63.027431 -6.593703
endloop
endfacet
facet normal 0.001025 0.001069 0.999999
outer loop
vertex 23.271109 117.347359 34.111557
vertex 5.791107 113.057358 34.134056
vertex 18.641109 63.027393 34.174347
endloop
endfacet
facet normal 0.002013 0.000984 0.999997
outer loop
vertex 23.271109 117.347359 34.111557
vertex 18.641109 63.027393 34.174347
vertex 36.031109 67.657356 34.134781
endloop
endfacet
facet normal -0.968659 -0.248394 -0.000000
outer loop
vertex -11.658891 124.687439 -6.593703
vertex -11.658891 124.687355 33.913555
vertex -24.418892 174.447433 34.010735
endloop
endfacet
facet normal -0.968659 -0.248394 0.000000
outer loop
vertex -11.658891 124.687439 -6.593703
vertex -24.418892 174.447433 34.010735
vertex -24.418892 174.447433 -6.593703
endloop
endfacet
facet normal -0.248322 0.968678 0.000000
outer loop
vertex -24.418892 174.447433 -6.593703
vertex -24.418892 174.447433 34.010735
vertex -7.098891 178.887436 33.902172
endloop
endfacet
facet normal -0.248322 0.968678 -0.000000
outer loop
vertex -24.418892 174.447433 -6.593703
vertex -7.098891 178.887436 33.902172
vertex -7.098890 178.887436 -6.593704
endloop
endfacet
facet normal 0.968392 0.249431 -0.000000
outer loop
vertex -7.098890 178.887436 -6.593704
vertex -7.098891 178.887436 33.902172
vertex 5.741109 129.037430 34.044296
endloop
endfacet
facet normal 0.968392 0.249431 0.000000
outer loop
vertex -7.098890 178.887436 -6.593704
vertex 5.741109 129.037430 34.044296
vertex 5.741109 129.037430 -6.593704
endloop
endfacet
facet normal 0.242540 -0.970142 0.000000
outer loop
vertex 5.741109 129.037430 -6.593704
vertex 5.741109 129.037430 34.044296
vertex -11.658891 124.687355 33.913555
endloop
endfacet
facet normal 0.242535 -0.970143 -0.000001
outer loop
vertex 5.741109 129.037430 -6.593704
vertex -11.658891 124.687355 33.913555
vertex -11.658891 124.687439 -6.593703
endloop
endfacet
facet normal -0.000000 -0.000000 -1.000000
outer loop
vertex -24.418892 174.447433 -6.593703
vertex -7.098890 178.887436 -6.593704
vertex 5.741109 129.037430 -6.593704
endloop
endfacet
facet normal -0.000000 -0.000000 -1.000000
outer loop
vertex -24.418892 174.447433 -6.593703
vertex 5.741109 129.037430 -6.593704
vertex -11.658891 124.687439 -6.593703
endloop
endfacet
facet normal 0.006351 -0.000324 0.999980
outer loop
vertex -7.098891 178.887436 33.902172
vertex -24.418892 174.447433 34.010735
vertex -11.658891 124.687355 33.913555
endloop
endfacet
facet normal -0.007729 0.000860 0.999970
outer loop
vertex -7.098891 178.887436 33.902172
vertex -11.658891 124.687355 33.913555
vertex 5.741109 129.037430 34.044296
endloop
endfacet
facet normal -0.995376 0.096052 0.000000
outer loop
vertex -79.498894 15.607376 34.405106
vertex -79.498894 15.607384 28.699778
vertex -83.108894 -21.802616 28.699728
endloop
endfacet
facet normal -0.995376 0.096052 0.000000
outer loop
vertex -79.498894 15.607376 34.405106
vertex -83.108894 -21.802616 28.699728
vertex -83.108894 -21.802626 34.430626
endloop
endfacet
facet normal 0.098510 0.995136 0.000001
outer loop
vertex -79.498894 15.607376 34.405106
vertex -68.588890 14.527377 34.415806
vertex -68.588890 14.527385 28.699774
endloop
endfacet
facet normal 0.098510 0.995136 0.000001
outer loop
vertex -79.498894 15.607376 34.405106
vertex -68.588890 14.527385 28.699774
vertex -79.498894 15.607384 28.699778
endloop
endfacet
facet normal -0.000001 0.000000 -1.000000
outer loop
vertex -68.588890 14.527432 -6.593703
vertex -80.185562 -22.069651 -6.593703
vertex -83.108894 -21.802567 -6.593703
endloop
endfacet
facet normal 0.000000 -0.000000 -1.000000
outer loop
vertex -68.588890 14.527432 -6.593703
vertex -83.108894 -21.802567 -6.593703
vertex -79.498894 15.607433 -6.593703
endloop
endfacet
facet normal -0.995852 0.090985 0.000000
outer loop
vertex -81.898895 -40.822601 23.077215
vertex -81.898895 -40.822605 28.707708
vertex -80.185555 -22.069698 28.699726
endloop
endfacet
facet normal -0.995852 0.090984 0.000000
outer loop
vertex -80.185555 -22.069698 28.699726
vertex -80.185562 -22.069651 -6.593703
vertex -81.898895 -40.822567 -6.593703
endloop
endfacet
facet normal -0.995852 0.090985 0.000000
outer loop
vertex -80.185555 -22.069698 28.699726
vertex -81.898895 -40.822567 -6.593703
vertex -81.898895 -40.822601 23.077215
endloop
endfacet
facet normal -0.000904 0.000769 0.999999
outer loop
vertex -68.588890 14.527377 34.415806
vertex -79.498894 15.607376 34.405106
vertex -83.108894 -21.802626 34.430626
endloop
endfacet
facet normal -0.000757 0.000711 0.999999
outer loop
vertex -68.588890 14.527377 34.415806
vertex -83.108894 -21.802626 34.430626
vertex -72.048889 -22.813124 34.439728
endloop
endfacet
facet normal 0.091494 0.995806 0.000001
outer loop
vertex -70.981125 -41.825657 23.077213
vertex -65.898895 -42.292606 23.002487
vertex -65.898895 -42.292568 -6.593703
endloop
endfacet
facet normal 0.091490 0.995806 0.000001
outer loop
vertex -70.981125 -41.825657 23.077213
vertex -65.898895 -42.292568 -6.593703
vertex -71.413742 -41.785889 -6.593702
endloop
endfacet
facet normal 0.000000 0.000000 -1.000000
outer loop
vertex -68.588890 14.527432 -6.593703
vertex -72.048889 -22.813046 -6.593703
vertex -80.185562 -22.069651 -6.593703
endloop
endfacet
facet normal -0.090986 -0.995852 -0.000004
outer loop
vertex -72.048889 -22.813124 34.439728
vertex -83.108894 -21.802626 34.430626
vertex -80.185555 -22.069698 28.699726
endloop
endfacet
facet normal -0.090984 -0.995852 -0.000006
outer loop
vertex -72.048889 -22.813124 34.439728
vertex -80.185555 -22.069698 28.699726
vertex -72.048889 -22.813087 28.699726
endloop
endfacet
facet normal -0.090983 -0.995852 -0.000001
outer loop
vertex -80.185555 -22.069698 28.699726
vertex -83.108894 -21.802616 28.699728
vertex -83.108894 -21.802567 -6.593703
endloop
endfacet
facet normal -0.090984 -0.995852 -0.000001
outer loop
vertex -80.185555 -22.069698 28.699726
vertex -83.108894 -21.802567 -6.593703
vertex -80.185562 -22.069651 -6.593703
endloop
endfacet
facet normal 0.000000 -0.000000 -1.000000
outer loop
vertex -71.413742 -41.785889 -6.593702
vertex -76.928589 -41.279213 -6.593702
vertex -72.048889 -22.813046 -6.593703
endloop
endfacet
facet normal 0.000000 -0.000000 -1.000000
outer loop
vertex -71.413742 -41.785889 -6.593702
vertex -72.048889 -22.813046 -6.593703
vertex -69.098892 -23.082565 -6.593703
endloop
endfacet
facet normal -0.095280 -0.995451 0.000000
outer loop
vertex -69.538895 -79.762566 -6.593703
vertex -69.538895 -79.762566 23.028830
vertex -80.508888 -78.712570 23.001432
endloop
endfacet
facet normal -0.095280 -0.995450 0.000000
outer loop
vertex -69.538895 -79.762566 -6.593703
vertex -80.508888 -78.712570 23.001432
vertex -80.508888 -78.712570 -6.593703
endloop
endfacet
facet normal -0.090983 -0.995852 -0.000002
outer loop
vertex -83.108894 -21.802626 34.430626
vertex -83.108894 -21.802616 28.699728
vertex -80.185555 -22.069698 28.699726
endloop
endfacet
facet normal 0.000000 -0.000000 -1.000000
outer loop
vertex -72.048889 -22.813046 -6.593703
vertex -76.928589 -41.279213 -6.593702
vertex -81.898895 -40.822567 -6.593703
endloop
endfacet
facet normal 0.000000 -0.000000 -1.000000
outer loop
vertex -72.048889 -22.813046 -6.593703
vertex -81.898895 -40.822567 -6.593703
vertex -80.185562 -22.069651 -6.593703
endloop
endfacet
facet normal -0.992740 0.120279 0.000000
outer loop
vertex -102.298889 42.487434 -6.593702
vertex -102.298889 42.487396 33.884842
vertex -96.108894 93.577354 33.874420
endloop
endfacet
facet normal -0.992740 0.120279 0.000000
outer loop
vertex -102.298889 42.487434 -6.593702
vertex -96.108894 93.577354 33.874420
vertex -96.108894 93.577431 -6.593702
endloop
endfacet
facet normal 0.111102 0.993809 0.000002
outer loop
vertex -96.108894 93.577431 -6.593702
vertex -96.108894 93.577354 33.874420
vertex -78.218895 91.577354 34.194218
endloop
endfacet
facet normal 0.111102 0.993809 0.000002
outer loop
vertex -96.108894 93.577431 -6.593702
vertex -78.218895 91.577354 34.194218
vertex -78.218895 91.577431 -6.593703
endloop
endfacet
facet normal 0.992670 -0.120853 -0.000000
outer loop
vertex -78.218895 91.577431 -6.593703
vertex -78.218895 91.577354 34.194218
vertex -84.438889 40.487396 33.885643
endloop
endfacet
facet normal 0.992670 -0.120853 -0.000000
outer loop
vertex -78.218895 91.577431 -6.593703
vertex -84.438889 40.487396 33.885643
vertex -84.438889 40.487434 -6.593703
endloop
endfacet
facet normal -0.111286 -0.993788 -0.000001
outer loop
vertex -84.438889 40.487434 -6.593703
vertex -84.438889 40.487396 33.885643
vertex -102.298889 42.487396 33.884842
endloop
endfacet
facet normal -0.111286 -0.993788 -0.000001
outer loop
vertex -84.438889 40.487434 -6.593703
vertex -102.298889 42.487396 33.884842
vertex -102.298889 42.487434 -6.593702
endloop
endfacet
facet normal -0.000000 0.000000 -1.000000
outer loop
vertex -96.108894 93.577431 -6.593702
vertex -78.218895 91.577431 -6.593703
vertex -84.438889 40.487434 -6.593703
endloop
endfacet
facet normal -0.000000 -0.000000 -1.000000
outer loop
vertex -96.108894 93.577431 -6.593702
vertex -84.438889 40.487434 -6.593703
vertex -102.298889 42.487434 -6.593702
endloop
endfacet
facet normal -0.017611 0.002338 0.999842
outer loop
vertex -78.218895 91.577354 34.194218
vertex -96.108894 93.577354 33.874420
vertex -102.298889 42.487396 33.884842
endloop
endfacet
facet normal -0.000712 -0.005953 0.999982
outer loop
vertex -78.218895 91.577354 34.194218
vertex -102.298889 42.487396 33.884842
vertex -84.438889 40.487396 33.885643
endloop
endfacet
facet normal -0.992687 0.120714 0.000000
outer loop
vertex -113.488892 114.487434 -6.593702
vertex -113.488892 114.487358 33.856655
vertex -107.268890 165.637436 33.874233
endloop
endfacet
facet normal -0.992687 0.120714 0.000000
outer loop
vertex -113.488892 114.487434 -6.593702
vertex -107.268890 165.637436 33.874233
vertex -107.268890 165.637436 -6.593702
endloop
endfacet
facet normal 0.118462 0.992959 0.000000
outer loop
vertex -107.268890 165.637436 -6.593702
vertex -107.268890 165.637436 33.874233
vertex -89.498894 163.517441 33.899433
endloop
endfacet
facet normal 0.118462 0.992959 0.000000
outer loop
vertex -107.268890 165.637436 -6.593702
vertex -89.498894 163.517441 33.899433
vertex -89.498894 163.517441 -6.593702
endloop
endfacet
facet normal 0.992687 -0.120714 0.000000
outer loop
vertex -89.498894 163.517441 -6.593702
vertex -89.498894 163.517441 33.899433
vertex -95.718895 112.367355 33.873657
endloop
endfacet
facet normal 0.992687 -0.120714 -0.000000
outer loop
vertex -89.498894 163.517441 -6.593702
vertex -95.718895 112.367355 33.873657
vertex -95.718895 112.367432 -6.593703
endloop
endfacet
facet normal -0.118462 -0.992958 -0.000002
outer loop
vertex -95.718895 112.367432 -6.593703
vertex -95.718895 112.367355 33.873657
vertex -113.488892 114.487358 33.856655
endloop
endfacet
facet normal -0.118462 -0.992959 -0.000001
outer loop
vertex -95.718895 112.367432 -6.593703
vertex -113.488892 114.487358 33.856655
vertex -113.488892 114.487434 -6.593702
endloop
endfacet
facet normal 0.000000 0.000000 -1.000000
outer loop
vertex -107.268890 165.637436 -6.593702
vertex -89.498894 163.517441 -6.593702
vertex -95.718895 112.367432 -6.593703
endloop
endfacet
facet normal -0.000000 0.000000 -1.000000
outer loop
vertex -107.268890 165.637436 -6.593702
vertex -95.718895 112.367432 -6.593703
vertex -113.488892 114.487434 -6.593702
endloop
endfacet
facet normal -0.001438 -0.000169 0.999999
outer loop
vertex -89.498894 163.517441 33.899433
vertex -107.268890 165.637436 33.874233
vertex -113.488892 114.487358 33.856655
endloop
endfacet
facet normal -0.001002 -0.000382 0.999999
outer loop
vertex -89.498894 163.517441 33.899433
vertex -113.488892 114.487358 33.856655
vertex -95.718895 112.367355 33.873657
endloop
endfacet
facet normal -0.995062 0.099260 0.000000
outer loop
vertex -169.686279 172.061630 -6.593702
vertex -169.686279 172.061630 17.689053
vertex -168.230896 186.651428 18.224871
endloop
endfacet
facet normal -0.995062 0.099260 0.000000
outer loop
vertex -169.686279 172.061630 -6.593702
vertex -168.230896 186.651428 18.224871
vertex -168.230896 186.651428 -6.593702
endloop
endfacet
facet normal 0.099694 0.995018 0.000000
outer loop
vertex -168.230896 186.651428 -6.593702
vertex -168.230896 186.651428 18.224871
vertex -113.847992 181.202637 18.306553
endloop
endfacet
facet normal 0.099694 0.995018 0.000000
outer loop
vertex -168.230896 186.651428 -6.593702
vertex -113.847992 181.202637 18.306553
vertex -113.847992 181.202637 -6.593702
endloop
endfacet
facet normal 0.995142 -0.098453 0.000000
outer loop
vertex -113.847992 181.202637 -6.593702
vertex -113.847992 181.202637 18.306553
vertex -115.295189 166.574432 17.965332
endloop
endfacet
facet normal 0.995142 -0.098451 0.000000
outer loop
vertex -113.847992 181.202637 -6.593702
vertex -115.295189 166.574432 17.965332
vertex -115.295189 166.574432 -6.593702
endloop
endfacet
facet normal -0.100375 -0.994950 0.000000
outer loop
vertex -115.295189 166.574432 -6.593702
vertex -115.295189 166.574432 17.965332
vertex -169.686279 172.061630 17.689053
endloop
endfacet
facet normal -0.100375 -0.994950 0.000000
outer loop
vertex -115.295189 166.574432 -6.593702
vertex -169.686279 172.061630 17.689053
vertex -169.686279 172.061630 -6.593702
endloop
endfacet
facet normal 0.000000 0.000000 -1.000000
outer loop
vertex -168.230896 186.651428 -6.593702
vertex -113.847992 181.202637 -6.593702
vertex -115.295189 166.574432 -6.593702
endloop
endfacet
facet normal -0.000000 0.000000 -1.000000
outer loop
vertex -168.230896 186.651428 -6.593702
vertex -115.295189 166.574432 -6.593702
vertex -169.686279 172.061630 -6.593702
endloop
endfacet
facet normal -0.005127 -0.036190 0.999332
outer loop
vertex -113.847992 181.202637 18.306553
vertex -168.230896 186.651428 18.224871
vertex -169.686279 172.061630 17.689053
endloop
endfacet
facet normal -0.007357 -0.022592 0.999718
outer loop
vertex -113.847992 181.202637 18.306553
vertex -169.686279 172.061630 17.689053
vertex -115.295189 166.574432 17.965332
endloop
endfacet
facet normal 0.000712 -0.012504 -0.999922
outer loop
vertex -167.837585 190.564178 0.020497
vertex -166.271622 206.138321 -0.173142
vertex -65.961716 196.054794 0.024405
endloop
endfacet
facet normal -0.000101 0.002592 -0.999997
outer loop
vertex -167.837585 190.564178 0.020497
vertex -65.961716 196.054794 0.024405
vertex -82.219681 181.958054 -0.010490
endloop
endfacet
facet normal -0.000013 0.000000 -1.000000
outer loop
vertex 3.092654 210.942169 0.023496
vertex -65.961716 196.054794 0.024405
vertex -65.591347 219.687515 0.024409
endloop
endfacet
facet normal -0.000013 0.000001 -1.000000
outer loop
vertex 3.092654 210.942169 0.023496
vertex -65.591347 219.687515 0.024409
vertex 1.211018 219.687515 0.023526
endloop
endfacet
facet normal 0.001989 -0.000031 -0.999998
outer loop
vertex -164.909485 219.687515 -0.173140
vertex -65.591347 219.687515 0.024409
vertex -65.961716 196.054794 0.024405
endloop
endfacet
facet normal 0.001950 -0.000196 -0.999998
outer loop
vertex -164.909485 219.687515 -0.173140
vertex -65.961716 196.054794 0.024405
vertex -166.271622 206.138321 -0.173142
endloop
endfacet
facet normal -0.248160 0.968719 0.000000
outer loop
vertex 25.422804 -52.541145 0.021189
vertex 25.422802 -52.541145 -6.593703
vertex 0.429090 -58.943871 -6.593703
endloop
endfacet
facet normal -0.248160 0.968719 -0.000000
outer loop
vertex 25.422804 -52.541145 0.021189
vertex 0.429090 -58.943871 -6.593703
vertex 0.429090 -58.943874 0.021195
endloop
endfacet
facet normal -0.968070 -0.250680 0.000000
outer loop
vertex 25.422802 -52.541145 -6.593703
vertex 25.422804 -52.541145 0.021189
vertex 20.808464 -34.721626 0.021207
endloop
endfacet
facet normal 0.000000 0.000003 1.000000
outer loop
vertex 20.808464 -34.721626 0.021207
vertex 16.194126 -16.902111 0.021225
vertex 11.579786 0.917404 0.021242
endloop
endfacet
facet normal -0.968070 -0.250680 0.000000
outer loop
vertex 2.351109 36.556435 -6.593704
vertex 25.422802 -52.541145 -6.593703
vertex 20.808464 -34.721626 0.021207
endloop
endfacet
facet normal -0.968070 -0.250680 0.000000
outer loop
vertex 6.965447 18.736919 0.021260
vertex 2.351109 36.556435 0.021278
vertex 2.351109 36.556435 -6.593704
endloop
endfacet
facet normal -0.968070 -0.250680 0.000000
outer loop
vertex 2.351109 36.556435 -6.593704
vertex 20.808464 -34.721626 0.021207
vertex 11.579786 0.917404 0.021242
endloop
endfacet
facet normal -0.968070 -0.250680 -0.000000
outer loop
vertex 11.579786 0.917404 0.021242
vertex 6.965447 18.736919 0.021260
vertex 2.351109 36.556435 -6.593704
endloop
endfacet
facet normal 0.969060 0.246824 0.000000
outer loop
vertex 52.354107 -68.501755 -6.593703
vertex 46.888287 -47.042259 -6.593703
vertex 46.888287 -47.042259 10.000090
endloop
endfacet
facet normal 0.969060 0.246824 0.000000
outer loop
vertex 52.354107 -68.501755 -6.593703
vertex 46.888287 -47.042259 10.000090
vertex 52.354107 -68.501755 10.000051
endloop
endfacet
facet normal -0.000000 -0.000002 1.000000
outer loop
vertex 46.888287 -47.042259 10.000090
vertex 25.422806 -52.541145 10.000080
vertex 52.354107 -68.501755 10.000051
endloop
endfacet
facet normal 0.000000 -0.000002 1.000000
outer loop
vertex 52.354107 -68.501755 10.000051
vertex 25.422806 -52.541145 10.000080
vertex 0.429090 -58.943886 10.000071
endloop
endfacet
facet normal 0.000000 -0.000002 1.000000
outer loop
vertex 52.354107 -68.501755 10.000051
vertex 0.429090 -58.943886 10.000071
vertex 5.894880 -80.403366 10.000031
endloop
endfacet
facet normal 0.969170 0.246391 0.000234
outer loop
vertex 0.429090 -58.943954 52.124805
vertex 5.884708 -80.403442 52.124805
vertex 5.894880 -80.403366 10.000031
endloop
endfacet
facet normal 0.969061 0.246822 0.000000
outer loop
vertex 0.429090 -58.943954 52.124805
vertex 5.894880 -80.403366 10.000031
vertex 0.429090 -58.943886 10.000071
endloop
endfacet
facet normal -0.000000 -0.000000 1.000000
outer loop
vertex 0.968402 41.881413 0.021278
vertex -12.786042 38.263538 0.021275
vertex 2.351109 36.556435 0.021278
endloop
endfacet
facet normal -0.000000 0.000001 -1.000000
outer loop
vertex 0.429090 -58.943874 0.021195
vertex -2.213936 -39.502392 0.021211
vertex 20.808464 -34.721626 0.021207
endloop
endfacet
facet normal -0.000000 0.000001 -1.000000
outer loop
vertex 0.429090 -58.943874 0.021195
vertex 20.808464 -34.721626 0.021207
vertex 25.422804 -52.541145 0.021189
endloop
endfacet
facet normal 0.000000 0.000001 -1.000000
outer loop
vertex -28.765892 -66.579575 0.021188
vertex -28.320810 -46.334526 0.021205
vertex -2.213936 -39.502392 0.021211
endloop
endfacet
facet normal 0.000000 0.000001 -1.000000
outer loop
vertex -28.765892 -66.579575 0.021188
vertex -2.213936 -39.502392 0.021211
vertex 0.429090 -58.943874 0.021195
endloop
endfacet
facet normal 0.000000 0.000001 -1.000000
outer loop
vertex -44.513382 -50.573242 0.021200
vertex -28.320810 -46.334526 0.021205
vertex -28.765892 -66.579575 0.021188
endloop
endfacet
facet normal 0.000000 0.000001 -1.000000
outer loop
vertex -44.513382 -50.573242 0.021200
vertex -28.765892 -66.579575 0.021188
vertex -45.567993 -70.973503 0.021183
endloop
endfacet
facet normal 0.000000 0.000001 -1.000000
outer loop
vertex -28.320810 -46.334526 0.021205
vertex -44.513382 -50.573242 0.021200
vertex -43.458767 -30.172987 0.021217
endloop
endfacet
facet normal 0.000000 0.000001 -1.000000
outer loop
vertex -28.320810 -46.334526 0.021205
vertex -43.458767 -30.172987 0.021217
vertex -27.875729 -26.089478 0.021221
endloop
endfacet
facet normal 0.000000 0.000001 -1.000000
outer loop
vertex -27.875729 -26.089478 0.021221
vertex -43.458767 -30.172987 0.021217
vertex -42.404156 -9.772728 0.021234
endloop
endfacet
facet normal 0.000000 0.000001 -1.000000
outer loop
vertex -27.875729 -26.089478 0.021221
vertex -42.404156 -9.772728 0.021234
vertex -27.430649 -5.844429 0.021238
endloop
endfacet
facet normal 0.000000 0.000001 -1.000000
outer loop
vertex -27.430649 -5.844429 0.021238
vertex -42.404156 -9.772728 0.021234
vertex -41.349545 10.627531 0.021251
endloop
endfacet
facet normal 0.000000 0.000001 -1.000000
outer loop
vertex -27.430649 -5.844429 0.021238
vertex -41.349545 10.627531 0.021251
vertex -26.985569 14.400618 0.021255
endloop
endfacet
facet normal 0.000000 0.000001 -1.000000
outer loop
vertex -40.294933 31.027790 0.021268
vertex -26.540487 34.645664 0.021271
vertex -26.985569 14.400618 0.021255
endloop
endfacet
facet normal 0.000000 0.000001 -1.000000
outer loop
vertex -40.294933 31.027790 0.021268
vertex -26.985569 14.400618 0.021255
vertex -41.349545 10.627531 0.021251
endloop
endfacet
facet normal 0.000000 0.000001 -1.000000
outer loop
vertex -26.540487 34.645664 0.021271
vertex -12.786042 38.263538 0.021275
vertex -10.143016 18.822056 0.021259
endloop
endfacet
facet normal 0.000000 0.000001 -1.000000
outer loop
vertex -26.540487 34.645664 0.021271
vertex -10.143016 18.822056 0.021259
vertex -26.985569 14.400618 0.021255
endloop
endfacet
facet normal 0.000000 0.000001 -1.000000
outer loop
vertex 6.965447 18.736919 0.021260
vertex -10.143016 18.822056 0.021259
vertex -12.786042 38.263538 0.021275
endloop
endfacet
facet normal 0.000000 0.000001 -1.000000
outer loop
vertex 6.965447 18.736919 0.021260
vertex -12.786042 38.263538 0.021275
vertex 2.351109 36.556435 0.021278
endloop
endfacet
facet normal -0.000000 0.000001 -1.000000
outer loop
vertex 11.579786 0.917404 0.021242
vertex -7.499990 -0.619427 0.021243
vertex -10.143016 18.822056 0.021259
endloop
endfacet
facet normal 0.000000 0.000001 -1.000000
outer loop
vertex 11.579786 0.917404 0.021242
vertex -10.143016 18.822056 0.021259
vertex 6.965447 18.736919 0.021260
endloop
endfacet
facet normal -0.000000 0.000001 -1.000000
outer loop
vertex 16.194126 -16.902111 0.021225
vertex -4.856963 -20.060909 0.021227
vertex -7.499990 -0.619427 0.021243
endloop
endfacet
facet normal -0.000000 0.000001 -1.000000
outer loop
vertex 16.194126 -16.902111 0.021225
vertex -7.499990 -0.619427 0.021243
vertex 11.579786 0.917404 0.021242
endloop
endfacet
facet normal -0.000000 0.000001 -1.000000
outer loop
vertex 20.808464 -34.721626 0.021207
vertex -2.213936 -39.502392 0.021211
vertex -4.856963 -20.060909 0.021227
endloop
endfacet
facet normal -0.000000 0.000001 -1.000000
outer loop
vertex 20.808464 -34.721626 0.021207
vertex -4.856963 -20.060909 0.021227
vertex 16.194126 -16.902111 0.021225
endloop
endfacet
facet normal 0.000000 0.000001 -1.000000
outer loop
vertex -4.856963 -20.060909 0.021227
vertex -2.213936 -39.502392 0.021211
vertex -28.320810 -46.334526 0.021205
endloop
endfacet
facet normal 0.000000 0.000001 -1.000000
outer loop
vertex -4.856963 -20.060909 0.021227
vertex -28.320810 -46.334526 0.021205
vertex -27.875729 -26.089478 0.021221
endloop
endfacet
facet normal 0.000000 0.000001 -1.000000
outer loop
vertex -7.499990 -0.619427 0.021243
vertex -4.856963 -20.060909 0.021227
vertex -27.875729 -26.089478 0.021221
endloop
endfacet
facet normal 0.000000 0.000001 -1.000000
outer loop
vertex -7.499990 -0.619427 0.021243
vertex -27.875729 -26.089478 0.021221
vertex -27.430649 -5.844429 0.021238
endloop
endfacet
facet normal 0.000000 0.000001 -1.000000
outer loop
vertex -10.143016 18.822056 0.021259
vertex -7.499990 -0.619427 0.021243
vertex -27.430649 -5.844429 0.021238
endloop
endfacet
facet normal 0.000000 0.000001 -1.000000
outer loop
vertex -10.143016 18.822056 0.021259
vertex -27.430649 -5.844429 0.021238
vertex -26.985569 14.400618 0.021255
endloop
endfacet
facet normal 0.000039 0.000422 1.000000
outer loop
vertex -80.185555 -22.069698 28.699726
vertex -81.898895 -40.822605 28.707708
vertex -72.048889 -22.813087 28.699726
endloop
endfacet
facet normal 0.000049 0.000553 1.000000
outer loop
vertex -70.898994 -41.833206 28.710190
vertex -69.098892 -23.082607 28.699726
vertex -72.048889 -22.813087 28.699726
endloop
endfacet
facet normal -0.000176 0.000539 1.000000
outer loop
vertex -70.898994 -41.833206 28.710190
vertex -72.048889 -22.813087 28.699726
vertex -81.898895 -40.822605 28.707708
endloop
endfacet
facet normal -0.000185 -0.002007 0.999998
outer loop
vertex -77.068573 -41.266380 23.077213
vertex -80.508888 -78.712570 23.001432
vertex -70.981125 -41.825657 23.077213
endloop
endfacet
facet normal 0.002629 0.001375 -0.999996
outer loop
vertex -69.538895 -79.762566 23.028830
vertex -80.508888 -78.712570 23.001432
vertex -70.981125 -41.825657 23.077213
endloop
endfacet
facet normal -0.014635 0.000719 -0.999893
outer loop
vertex -69.538895 -79.762566 23.028830
vertex -70.981125 -41.825657 23.077213
vertex -65.898895 -42.292606 23.002487
endloop
endfacet
facet normal 0.995423 -0.095563 -0.000000
outer loop
vertex -69.098892 -23.082602 23.077236
vertex -69.098892 -23.082607 28.699726
vertex -70.898994 -41.833206 28.710190
endloop
endfacet
facet normal 0.994889 -0.099909 -0.014640
outer loop
vertex -69.098892 -23.082602 23.077236
vertex -70.898994 -41.833206 28.710190
vertex -70.981125 -41.825657 23.077213
endloop
endfacet
facet normal 0.090984 0.995852 0.000001
outer loop
vertex -72.048889 -22.813087 28.699726
vertex -69.098892 -23.082607 28.699726
vertex -69.098892 -23.082602 23.077236
endloop
endfacet
facet normal 0.090984 0.995852 0.000001
outer loop
vertex -69.098892 -23.082602 23.077236
vertex -69.098892 -23.082565 -6.593703
vertex -72.048889 -22.813046 -6.593703
endloop
endfacet
facet normal 0.090984 0.995852 0.000001
outer loop
vertex -69.098892 -23.082602 23.077236
vertex -72.048889 -22.813046 -6.593703
vertex -72.048889 -22.813087 28.699726
endloop
endfacet
facet normal 0.992428 -0.122829 -0.000000
outer loop
vertex -71.413742 -41.785889 -6.593702
vertex -69.098892 -23.082565 -6.593703
vertex -69.098892 -23.082602 23.077236
endloop
endfacet
facet normal 0.994889 -0.099909 -0.014640
outer loop
vertex -71.413742 -41.785889 -6.593702
vertex -69.098892 -23.082602 23.077236
vertex -70.981125 -41.825657 23.077213
endloop
endfacet
facet normal 0.995734 -0.092266 -0.000000
outer loop
vertex -72.048889 -22.813087 28.699726
vertex -72.048889 -22.813046 -6.593703
vertex -68.588890 14.527432 -6.593703
endloop
endfacet
facet normal 0.995734 -0.092266 -0.000000
outer loop
vertex -72.048889 -22.813087 28.699726
vertex -68.588890 14.527432 -6.593703
vertex -68.588890 14.527385 28.699774
endloop
endfacet
facet normal 0.995734 -0.092266 -0.000000
outer loop
vertex -68.588890 14.527385 28.699774
vertex -68.588890 14.527377 34.415806
vertex -72.048889 -22.813124 34.439728
endloop
endfacet
facet normal 0.995734 -0.092265 -0.000001
outer loop
vertex -68.588890 14.527385 28.699774
vertex -72.048889 -22.813124 34.439728
vertex -72.048889 -22.813087 28.699726
endloop
endfacet
facet normal -0.091489 -0.995806 -0.000001
outer loop
vertex -81.898895 -40.822567 -6.593703
vertex -76.928589 -41.279213 -6.593702
vertex -77.068573 -41.266380 23.077213
endloop
endfacet
facet normal -0.091488 -0.995806 -0.000001
outer loop
vertex -81.898895 -40.822567 -6.593703
vertex -77.068573 -41.266380 23.077213
vertex -81.898895 -40.822601 23.077215
endloop
endfacet
facet normal -0.091488 -0.995806 -0.000001
outer loop
vertex -81.898895 -40.822601 23.077215
vertex -77.068573 -41.266380 23.077213
vertex -81.898895 -40.822605 28.707708
endloop
endfacet
facet normal -0.091488 -0.995806 -0.000001
outer loop
vertex -81.898895 -40.822605 28.707708
vertex -77.068573 -41.266380 23.077213
vertex -70.981125 -41.825657 23.077213
endloop
endfacet
facet normal -0.091488 -0.995806 0.000000
outer loop
vertex -81.898895 -40.822605 28.707708
vertex -70.981125 -41.825657 23.077213
vertex -70.898994 -41.833206 28.710190
endloop
endfacet
facet normal 0.000000 0.000000 -1.000000
outer loop
vertex -76.928589 -41.279213 -6.593702
vertex -71.413742 -41.785889 -6.593702
vertex -80.508888 -78.712570 -6.593703
endloop
endfacet
facet normal 0.000000 -0.000000 1.000000
outer loop
vertex -69.538895 -79.762566 -6.593703
vertex -65.898895 -42.292568 -6.593703
vertex -71.413742 -41.785889 -6.593702
endloop
endfacet
facet normal 0.000000 -0.000000 1.000000
outer loop
vertex -69.538895 -79.762566 -6.593703
vertex -71.413742 -41.785889 -6.593702
vertex -80.508888 -78.712570 -6.593703
endloop
endfacet
facet normal -0.995794 0.091497 -0.004738
outer loop
vertex -80.508888 -78.712570 23.001432
vertex -77.068573 -41.266380 23.077213
vertex -76.928589 -41.279213 -6.593702
endloop
endfacet
facet normal -0.995457 0.095210 0.000000
outer loop
vertex -80.508888 -78.712570 23.001432
vertex -76.928589 -41.279213 -6.593702
vertex -80.508888 -78.712570 -6.593703
endloop
endfacet
facet normal -0.995315 0.096689 0.000000
outer loop
vertex -65.898895 -42.292606 23.002487
vertex -65.898895 -42.292568 -6.593703
vertex -69.538895 -79.762566 -6.593703
endloop
endfacet
facet normal -0.995315 0.096689 0.000000
outer loop
vertex -65.898895 -42.292606 23.002487
vertex -69.538895 -79.762566 -6.593703
vertex -69.538895 -79.762566 23.028830
endloop
endfacet
facet normal -0.995376 0.096052 0.000000
outer loop
vertex -79.498894 15.607433 -6.593703
vertex -83.108894 -21.802567 -6.593703
vertex -83.108894 -21.802616 28.699728
endloop
endfacet
facet normal -0.995376 0.096052 0.000000
outer loop
vertex -79.498894 15.607433 -6.593703
vertex -83.108894 -21.802616 28.699728
vertex -79.498894 15.607384 28.699778
endloop
endfacet
facet normal 0.098510 0.995136 0.000001
outer loop
vertex -68.588890 14.527432 -6.593703
vertex -79.498894 15.607433 -6.593703
vertex -79.498894 15.607384 28.699778
endloop
endfacet
facet normal 0.098510 0.995136 0.000001
outer loop
vertex -68.588890 14.527432 -6.593703
vertex -79.498894 15.607384 28.699778
vertex -68.588890 14.527385 28.699774
endloop
endfacet
facet normal -0.253031 0.967458 0.000002
outer loop
vertex -28.765892 -66.579567 -6.593703
vertex -28.765892 -66.579575 0.021188
vertex 0.429090 -58.943874 0.021195
endloop
endfacet
facet normal -0.253030 0.967458 0.000000
outer loop
vertex -28.765892 -66.579567 -6.593703
vertex 0.429090 -58.943874 0.021195
vertex 0.429090 -58.943871 -6.593703
endloop
endfacet
endsolid Exported from Blender-3.4.1
