# Blender 3.4.1
# www.blender.org
mtllib surfaces_top.mtl
o surfaces_top
v 25.422808 10.000114 52.498772
v 2.351109 10.000200 -36.556435
v 23.734108 10.000206 -42.092434
v 5.894880 10.000086 80.403366
v 0.429089 10.000109 58.943871
v 52.354107 10.000096 68.501755
v 46.888287 10.000121 47.042259
v -23.238892 52.124825 87.939613
v -28.765892 52.124851 66.579613
v 5.884708 52.124851 80.403412
v 0.429090 52.124851 58.943924
v 18.641109 34.174301 -63.027409
v 5.791107 34.133980 -113.057388
v 36.031109 34.134735 -67.657387
v 23.271109 34.111481 -117.347389
v -11.658891 33.913479 -124.687386
v -24.418892 34.010628 -174.447433
v 5.741109 34.044205 -129.037430
v -7.098891 33.902050 -178.887436
v -83.108894 34.430641 21.802603
v -79.498894 34.405090 -15.607399
v -72.048889 34.439743 22.813101
v -68.588890 34.415791 -14.527400
v -81.898895 28.707731 40.822590
v -80.058792 28.697243 22.081287
v -70.898994 28.710220 41.833191
v -69.098892 28.699741 23.082592
v -80.508888 23.001486 78.712570
v -76.928589 22.978519 41.279190
v -69.538895 23.028883 79.762566
v -65.898895 23.002518 42.292591
v -138.878754 22.838549 76.420731
v -143.781357 22.818209 55.998291
v -126.938889 22.846697 73.842567
v -131.658890 22.826408 53.342590
v -143.757812 28.545427 56.088604
v -148.499161 28.539595 37.901371
v -138.439194 28.546709 54.881489
v -142.638885 28.541029 36.582588
v -148.498764 34.260937 37.902912
v -155.782379 34.255821 9.963857
v -145.500092 34.265320 37.227287
v -151.970551 34.261982 8.970120
v -102.298889 33.884811 -42.487411
v -96.108894 33.874359 -93.577385
v -84.438889 33.885612 -40.487411
v -78.218895 34.194157 -91.577385
v -113.488892 33.856579 -114.487389
v -107.268890 33.874126 -165.637436
v -95.718895 33.873581 -112.367386
v -89.498894 33.899326 -163.517441
v -169.686279 17.688938 -172.061630
v -168.230896 18.224749 -186.651428
v -115.295189 17.965225 -166.574432
v -113.847992 18.306438 -181.202637
v -173.210571 36.066452 -56.888458
v -181.888535 36.041359 -90.176048
v -169.163803 36.025856 -89.247398
v -198.793869 33.295826 -155.022858
v -197.978897 33.308426 -161.577438
v -186.830994 33.333897 -109.134720
v -180.578888 33.307926 -159.417435
vn -0.0000 1.0000 -0.0000
vn 0.0015 1.0000 -0.0010
vn -0.0007 1.0000 -0.0003
vn -0.0008 1.0000 -0.0007
vn -0.0002 1.0000 -0.0006
vn -0.0023 1.0000 -0.0009
vn -0.0009 1.0000 -0.0008
vn -0.0003 1.0000 -0.0002
vn -0.0015 1.0000 0.0002
vn -0.0092 1.0000 0.0018
vn -0.0012 1.0000 0.0003
vn -0.0062 0.9995 0.0294
vn 0.0013 1.0000 -0.0011
vt 0.875000 0.750000
vt 0.875000 0.500000
vt 0.625000 0.500000
vt 0.875000 0.750000
vt 0.875000 0.500000
vt 0.625000 0.750000
vt 0.625000 0.750000
vt 0.625000 0.500000
vt 0.875000 0.750000
vt 0.875000 0.500000
vt 0.625000 0.750000
vt 0.625000 0.500000
vt 0.875000 0.750000
vt 0.875000 0.500000
vt 0.625000 0.750000
vt 0.625000 0.500000
vt 0.875000 0.750000
vt 0.875000 0.500000
vt 0.625000 0.750000
vt 0.625000 0.500000
vt 0.875000 0.750000
vt 0.875000 0.500000
vt 0.625000 0.750000
vt 0.625000 0.500000
vt 0.875000 0.750000
vt 0.875000 0.500000
vt 0.625000 0.750000
vt 0.625000 0.500000
vt 0.875000 0.750000
vt 0.875000 0.500000
vt 0.625000 0.750000
vt 0.625000 0.500000
vt 0.875000 0.750000
vt 0.875000 0.500000
vt 0.625000 0.750000
vt 0.625000 0.500000
vt 0.875000 0.750000
vt 0.875000 0.500000
vt 0.625000 0.750000
vt 0.625000 0.500000
vt 0.875000 0.750000
vt 0.875000 0.500000
vt 0.625000 0.750000
vt 0.625000 0.500000
vt 0.875000 0.750000
vt 0.875000 0.500000
vt 0.625000 0.750000
vt 0.625000 0.500000
vt 0.875000 0.750000
vt 0.875000 0.500000
vt 0.625000 0.750000
vt 0.625000 0.500000
vt 0.875000 0.750000
vt 0.875000 0.500000
vt 0.625000 0.750000
vt 0.625000 0.500000
vt 0.625000 0.750000
vt 0.875000 0.500000
vt 0.625000 0.500000
vt 0.875000 0.750000
vt 0.875000 0.500000
vt 0.625000 0.750000
vt 0.625000 0.500000
s 0
f 3/3/1 2/2/1 1/1/1 7/7/1
f 7/8/1 5/5/1 4/4/1 6/6/1
f 11/12/1 9/10/1 8/9/1 10/11/1
f 15/16/2 13/14/2 12/13/2 14/15/2
f 19/20/3 17/18/3 16/17/3 18/19/3
f 23/24/4 21/22/4 20/21/4 22/23/4
f 27/28/5 25/26/5 24/25/5 26/27/5
f 31/32/6 29/30/6 28/29/6 30/31/6
f 35/36/7 33/34/7 32/33/7 34/35/7
f 39/40/8 37/38/8 36/37/8 38/39/8
f 43/44/9 41/42/9 40/41/9 42/43/9
f 47/48/10 45/46/10 44/45/10 46/47/10
f 51/52/11 49/50/11 48/49/11 50/51/11
f 55/56/12 53/54/12 52/53/12 54/55/12
f 58/59/13 57/58/13 56/57/13
f 62/63/3 60/61/3 59/60/3 61/62/3
