# Blender 3.4.1
# www.blender.org
mtllib building_grass.mtl
o grass
v -48.606964 -0.179526 -36.556435
v -9.026245 -0.179526 -47.510406
v -65.961716 -0.179526 -167.778763
v -40.852097 -0.179526 -173.192123
v -65.961716 0.185044 -167.778763
v -48.606964 0.185044 -36.556435
v -9.026245 0.185044 -47.510406
v -40.852097 0.185044 -173.192123
vn -0.0000 -1.0000 -0.0000
vn -0.0000 1.0000 -0.0000
vn -0.2107 -0.0000 -0.9775
vn 0.2667 -0.0000 0.9638
vn 0.9694 -0.0000 -0.2455
vn -0.9914 -0.0000 0.1311
vt 0.000000 0.000000
vt 1.000000 0.000000
vt 0.000000 1.000000
vt 1.000000 1.000000
vt 0.000000 1.000000
vt 0.000000 0.000000
vt 1.000000 0.000000
vt 1.000000 1.000000
s 0
g off
f 1/1/1 3/3/1 4/4/1 2/2/1
g grass
f 6/6/2 7/7/2 8/8/2 5/5/2
f 4/4/3 3/3/3 5/5/3 8/8/3
f 1/1/4 2/2/4 7/7/4 6/6/4
f 2/2/5 4/4/5 8/8/5 7/7/5
f 3/3/6 1/1/6 6/6/6 5/5/6
o buildings
v 25.422802 -0.219877 52.541145
v 25.422806 10.000123 52.541145
v 2.351109 -0.219804 -36.556435
v 2.351109 10.000195 -36.556435
v 46.888287 -0.219873 47.042259
v 46.888287 10.000129 47.042259
v 23.734108 -0.219799 -42.092434
v 23.734108 10.000199 -42.092434
v 5.894878 -0.219898 80.403366
v 5.894880 10.000099 80.403366
v 0.429089 -0.219883 58.943871
v 0.429089 10.000118 58.943871
v 52.354107 -0.219889 68.501755
v 52.354107 10.000108 68.501755
v 46.888287 -0.219873 47.042259
v 46.888287 10.000129 47.042259
v -23.238892 -0.219903 87.939568
v -23.238892 52.124840 87.939606
v -28.765892 -0.219888 66.579567
v -28.765892 52.124863 66.579605
v 5.884708 -0.219898 80.403366
v 5.884708 52.124863 80.403404
v 0.429090 -0.251782 58.943871
v 0.429090 52.124863 58.943916
v 18.641109 -0.219783 -63.027431
v 18.641109 34.174290 -63.027412
v 5.956993 -0.195372 -113.098114
v 5.791107 34.133961 -113.057396
v 36.031109 -0.219779 -67.657433
v 36.031109 34.134724 -67.657394
v 23.271109 -0.271039 -117.347427
v 23.271109 34.111462 -117.347397
v -11.658891 -0.219734 -124.687439
v -11.658891 33.913460 -124.687393
v -24.418892 -0.255694 -174.447433
v -24.418892 34.010601 -174.447433
v 5.741109 -0.219730 -129.037430
v 5.741109 34.044182 -129.037430
v -7.098890 -0.255690 -178.887436
v -7.098891 33.902020 -178.887436
v -83.108894 -0.219844 21.802567
v -83.108894 34.430645 21.802597
v -79.498894 -0.241311 -15.607433
v -79.498894 34.405087 -15.607405
v -72.048889 -0.219844 22.813065
v -72.048889 34.439747 22.813095
v -68.588890 -0.241314 -14.527432
v -68.588890 34.415787 -14.527406
v -81.898895 -0.219859 40.822567
v -81.898895 28.707737 40.822586
v -80.058792 -0.219844 22.081268
v -80.058792 28.697247 22.081284
v -70.898994 -0.219860 41.833168
v -70.898994 28.710228 41.833187
v -69.098892 -0.219844 23.082565
v -69.098892 28.699745 23.082588
v -80.508888 -0.179689 78.712570
v -80.508888 23.001499 78.712570
v -76.928589 -0.219859 41.279167
v -76.928589 22.978527 41.279186
v -69.538895 -0.179689 79.762566
v -69.538895 23.028896 79.762566
v -65.898895 -0.219859 42.292568
v -65.898895 23.002525 42.292587
v -138.878754 -0.117559 76.420731
v -138.878754 22.838562 76.420731
v -143.781357 -0.117542 55.998268
v -143.781357 22.818218 55.998287
v -126.938889 -0.117557 73.842567
v -126.938889 22.846708 73.842567
v -131.658890 -0.117542 53.342567
v -131.658890 22.826418 53.342587
v -143.757812 -0.110859 56.088581
v -143.757812 28.545437 56.088600
v -148.499161 -0.110844 37.901348
v -148.499161 28.539600 37.901367
v -138.439194 -0.110859 54.881466
v -138.439194 28.546719 54.881485
v -142.638885 -0.110844 36.582565
v -142.638885 28.541035 36.582584
v -148.499161 -0.141152 37.901348
v -148.498764 34.260944 37.902908
v -155.782379 -0.128131 9.963821
v -155.782379 34.255821 9.963851
v -145.500092 -0.108351 37.227264
v -145.500092 34.265327 37.227283
v -151.970551 -0.128128 8.970093
v -151.970551 34.261982 8.970115
v -102.298889 -0.219791 -42.487434
v -102.298889 33.884804 -42.487415
v -96.108894 -0.230750 -93.577431
v -96.108894 33.874344 -93.577393
v -84.438889 -0.219791 -40.487434
v -84.438889 33.885605 -40.487415
v -78.218895 -0.230751 -91.577431
v -78.218895 34.194141 -91.577393
v -113.488892 -0.219767 -114.487434
v -113.488892 33.856560 -114.487396
v -107.268890 -0.179525 -165.637436
v -107.268890 33.874100 -165.637436
v -95.718895 -0.219770 -112.367432
v -95.718895 33.873562 -112.367393
v -89.498894 -0.179526 -163.517441
v -89.498894 33.899300 -163.517441
v -169.686279 -0.219686 -172.061630
v -169.686279 17.688910 -172.061630
v -168.230896 -0.219676 -186.651428
v -168.230896 18.224718 -186.651428
v -115.295189 -0.219691 -166.574432
v -115.295189 17.965199 -166.574432
v -113.847992 -0.219678 -181.202637
v -113.847992 18.306410 -181.202637
v -173.210571 -0.105141 -56.888504
v -173.210571 36.066444 -56.888466
v -181.888535 -0.168813 -90.176086
v -181.888535 36.041344 -90.176056
v -169.163803 -0.168813 -89.247437
v -169.163803 36.025841 -89.247406
v -198.793869 -0.056824 -155.022858
v -198.793869 33.295799 -155.022858
v -197.978897 -0.056819 -161.577438
v -197.978897 33.308399 -161.577438
v -186.830994 -0.105159 -109.134766
v -186.830994 33.333878 -109.134727
v -180.578888 -0.056819 -159.417435
v -180.578888 33.307899 -159.417435
vn -0.9681 -0.0000 0.2507
vn -0.2506 -0.0000 -0.9681
vn 0.9679 -0.0000 -0.2514
vn 0.2482 -0.0000 0.9687
vn -0.0000 -1.0000 -0.0000
vn -0.0000 1.0000 -0.0000
vn -0.9691 -0.0000 0.2468
vn -0.2482 -0.0000 -0.9687
vn 0.9691 -0.0000 -0.2468
vn -0.9681 -0.0000 0.2505
vn -0.2530 -0.0000 -0.9675
vn 0.9692 -0.0000 -0.2464
vn 0.2505 -0.0000 0.9681
vn -0.0003 -1.0000 0.0008
vn -0.9690 -0.0025 0.2472
vn -0.2384 -0.0000 -0.9712
vn 0.9686 -0.0000 -0.2487
vn 0.2573 -0.0000 0.9663
vn -0.0020 -1.0000 0.0008
vn 0.0015 1.0000 -0.0010
vn -0.9687 -0.0000 0.2484
vn -0.2483 -0.0000 -0.9687
vn 0.9684 -0.0000 -0.2494
vn 0.2425 -0.0000 0.9701
vn 0.0002 -1.0000 0.0007
vn -0.0007 1.0000 -0.0003
vn -0.9954 -0.0000 -0.0961
vn 0.0985 -0.0000 -0.9951
vn 0.9957 -0.0000 0.0923
vn -0.0910 -0.0000 0.9959
vn -0.0001 -1.0000 0.0006
vn -0.0008 1.0000 -0.0007
vn -0.9952 -0.0000 -0.0977
vn 0.0910 -0.0000 -0.9959
vn 0.9954 -0.0000 0.0956
vn -0.0915 -0.0000 0.9958
vn -0.0002 1.0000 -0.0006
vn -0.9955 -0.0000 -0.0952
vn 0.0915 -0.0000 -0.9958
vn 0.9953 -0.0000 0.0967
vn -0.0953 -0.0000 0.9955
vn -0.0001 -1.0000 0.0011
vn -0.0023 1.0000 -0.0009
vn -0.9724 -0.0000 0.2334
vn -0.2140 -0.0000 -0.9768
vn 0.9745 -0.0000 -0.2244
vn 0.2111 -0.0000 0.9775
vn -0.0009 1.0000 -0.0008
vn -0.9677 -0.0000 0.2523
vn -0.2195 -0.0000 -0.9756
vn 0.9747 -0.0000 -0.2237
vn 0.2213 -0.0000 0.9752
vn -0.0003 1.0000 -0.0002
vn -0.2523 -0.0000 -0.9677
vn 0.9748 -0.0000 -0.2232
vn 0.2195 -0.0000 0.9756
vn 0.0046 -1.0000 -0.0010
vn -0.0015 1.0000 0.0002
vn -0.9927 -0.0000 -0.1203
vn 0.1111 -0.0000 -0.9938
vn 0.9927 -0.0000 0.1209
vn -0.1113 -0.0000 0.9938
vn -0.0000 -1.0000 0.0002
vn -0.0092 1.0000 0.0018
vn -0.9927 -0.0000 -0.1207
vn 0.1185 -0.0000 -0.9930
vn 0.9927 -0.0000 0.1207
vn -0.1185 -0.0000 0.9930
vn 0.0001 -1.0000 -0.0008
vn -0.0012 1.0000 0.0003
vn -0.9951 -0.0000 -0.0993
vn 0.0997 -0.0000 -0.9950
vn 0.9951 -0.0000 0.0985
vn -0.1004 -0.0000 0.9949
vn -0.0062 0.9995 0.0294
vn 0.0728 -0.0000 -0.9973
vn 0.9923 -0.0000 0.1241
vn -0.0001 -1.0000 0.0019
vn 0.0013 1.0000 -0.0011
vn -0.9924 -0.0000 -0.1234
vn 0.1232 -0.0000 -0.9924
vn 0.9924 -0.0000 0.1234
vn -0.0002 -1.0000 -0.0009
vt 0.375000 0.000000
vt 0.375000 1.000000
vt 0.125000 0.750000
vt 0.625000 0.000000
vt 0.625000 1.000000
vt 0.875000 0.750000
vt 0.375000 0.250000
vt 0.125000 0.500000
vt 0.625000 0.250000
vt 0.875000 0.500000
vt 0.375000 0.750000
vt 0.625000 0.750000
vt 0.375000 0.500000
vt 0.625000 0.500000
vt 0.375000 0.000000
vt 0.375000 1.000000
vt 0.125000 0.750000
vt 0.625000 0.000000
vt 0.625000 1.000000
vt 0.875000 0.750000
vt 0.375000 0.250000
vt 0.125000 0.500000
vt 0.625000 0.250000
vt 0.875000 0.500000
vt 0.375000 0.750000
vt 0.625000 0.750000
vt 0.375000 0.500000
vt 0.625000 0.500000
vt 0.375000 0.000000
vt 0.375000 1.000000
vt 0.125000 0.750000
vt 0.625000 0.000000
vt 0.625000 1.000000
vt 0.875000 0.750000
vt 0.375000 0.250000
vt 0.125000 0.500000
vt 0.625000 0.250000
vt 0.875000 0.500000
vt 0.375000 0.750000
vt 0.625000 0.750000
vt 0.375000 0.500000
vt 0.625000 0.500000
vt 0.375000 0.000000
vt 0.375000 1.000000
vt 0.125000 0.750000
vt 0.625000 0.000000
vt 0.625000 1.000000
vt 0.875000 0.750000
vt 0.375000 0.250000
vt 0.125000 0.500000
vt 0.625000 0.250000
vt 0.875000 0.500000
vt 0.375000 0.750000
vt 0.625000 0.750000
vt 0.375000 0.500000
vt 0.625000 0.500000
vt 0.375000 0.000000
vt 0.375000 1.000000
vt 0.125000 0.750000
vt 0.625000 0.000000
vt 0.625000 1.000000
vt 0.875000 0.750000
vt 0.375000 0.250000
vt 0.125000 0.500000
vt 0.625000 0.250000
vt 0.875000 0.500000
vt 0.375000 0.750000
vt 0.625000 0.750000
vt 0.375000 0.500000
vt 0.625000 0.500000
vt 0.375000 0.000000
vt 0.375000 1.000000
vt 0.125000 0.750000
vt 0.625000 0.000000
vt 0.625000 1.000000
vt 0.875000 0.750000
vt 0.375000 0.250000
vt 0.125000 0.500000
vt 0.625000 0.250000
vt 0.875000 0.500000
vt 0.375000 0.750000
vt 0.625000 0.750000
vt 0.375000 0.500000
vt 0.625000 0.500000
vt 0.375000 0.000000
vt 0.375000 1.000000
vt 0.125000 0.750000
vt 0.625000 0.000000
vt 0.625000 1.000000
vt 0.875000 0.750000
vt 0.375000 0.250000
vt 0.125000 0.500000
vt 0.625000 0.250000
vt 0.875000 0.500000
vt 0.375000 0.750000
vt 0.625000 0.750000
vt 0.375000 0.500000
vt 0.625000 0.500000
vt 0.375000 0.000000
vt 0.375000 1.000000
vt 0.125000 0.750000
vt 0.625000 0.000000
vt 0.625000 1.000000
vt 0.875000 0.750000
vt 0.375000 0.250000
vt 0.125000 0.500000
vt 0.625000 0.250000
vt 0.875000 0.500000
vt 0.375000 0.750000
vt 0.625000 0.750000
vt 0.375000 0.500000
vt 0.625000 0.500000
vt 0.375000 0.000000
vt 0.375000 1.000000
vt 0.125000 0.750000
vt 0.625000 0.000000
vt 0.625000 1.000000
vt 0.875000 0.750000
vt 0.375000 0.250000
vt 0.125000 0.500000
vt 0.625000 0.250000
vt 0.875000 0.500000
vt 0.375000 0.750000
vt 0.625000 0.750000
vt 0.375000 0.500000
vt 0.625000 0.500000
vt 0.375000 0.000000
vt 0.375000 1.000000
vt 0.125000 0.750000
vt 0.625000 0.000000
vt 0.625000 1.000000
vt 0.875000 0.750000
vt 0.375000 0.250000
vt 0.125000 0.500000
vt 0.625000 0.250000
vt 0.875000 0.500000
vt 0.375000 0.750000
vt 0.625000 0.750000
vt 0.375000 0.500000
vt 0.625000 0.500000
vt 0.375000 0.000000
vt 0.375000 1.000000
vt 0.125000 0.750000
vt 0.625000 0.000000
vt 0.625000 1.000000
vt 0.875000 0.750000
vt 0.375000 0.250000
vt 0.125000 0.500000
vt 0.625000 0.250000
vt 0.875000 0.500000
vt 0.375000 0.750000
vt 0.625000 0.750000
vt 0.375000 0.500000
vt 0.625000 0.500000
vt 0.375000 0.000000
vt 0.375000 1.000000
vt 0.125000 0.750000
vt 0.625000 0.000000
vt 0.625000 1.000000
vt 0.875000 0.750000
vt 0.375000 0.250000
vt 0.125000 0.500000
vt 0.625000 0.250000
vt 0.875000 0.500000
vt 0.375000 0.750000
vt 0.625000 0.750000
vt 0.375000 0.500000
vt 0.625000 0.500000
vt 0.375000 0.000000
vt 0.375000 1.000000
vt 0.125000 0.750000
vt 0.625000 0.000000
vt 0.625000 1.000000
vt 0.875000 0.750000
vt 0.375000 0.250000
vt 0.125000 0.500000
vt 0.625000 0.250000
vt 0.875000 0.500000
vt 0.375000 0.750000
vt 0.625000 0.750000
vt 0.375000 0.500000
vt 0.625000 0.500000
vt 0.375000 0.000000
vt 0.375000 1.000000
vt 0.125000 0.750000
vt 0.625000 0.000000
vt 0.625000 1.000000
vt 0.875000 0.750000
vt 0.375000 0.250000
vt 0.125000 0.500000
vt 0.625000 0.250000
vt 0.875000 0.500000
vt 0.375000 0.750000
vt 0.625000 0.750000
vt 0.375000 0.500000
vt 0.625000 0.500000
vt 0.375000 0.000000
vt 0.375000 0.750000
vt 0.125000 0.750000
vt 0.625000 0.000000
vt 0.625000 0.750000
vt 0.375000 0.250000
vt 0.125000 0.500000
vt 0.625000 0.250000
vt 0.875000 0.500000
vt 0.375000 0.500000
vt 0.625000 0.500000
vt 0.375000 0.000000
vt 0.375000 1.000000
vt 0.125000 0.750000
vt 0.625000 0.000000
vt 0.625000 1.000000
vt 0.875000 0.750000
vt 0.375000 0.250000
vt 0.125000 0.500000
vt 0.625000 0.250000
vt 0.875000 0.500000
vt 0.375000 0.750000
vt 0.625000 0.750000
vt 0.375000 0.500000
vt 0.625000 0.500000
s 0
g surfaces_east
f 9/9/7 10/12/7 12/17/7 11/15/7
g surfaces_north
f 11/15/8 12/17/8 16/22/8 15/21/8
g surfaces_west
f 15/21/9 16/22/9 14/20/9 13/19/9
g surfaces_top
f 13/19/10 14/20/10 10/13/10 9/10/10
g surfaces_ground
f 11/16/11 15/21/11 13/19/11 9/11/11
g surfaces_top
f 16/22/12 12/18/12 10/14/12 14/20/12
f 17/23/13 18/26/13 20/31/13 19/29/13
g surfaces_north
f 19/29/14 20/31/14 24/36/14 23/35/14
g surfaces_west
f 23/35/15 24/36/15 22/34/15 21/33/15
g surfaces_south
f 21/33/10 22/34/10 18/27/10 17/24/10
g surfaces_ground
f 19/30/11 23/35/11 21/33/11 17/25/11
g surfaces_top
f 24/36/12 20/32/12 18/28/12 22/34/12
g surfaces_east
f 25/37/16 26/40/16 28/45/16 27/43/16
g surfaces_north
f 27/43/17 28/45/17 32/50/17 31/49/17
g surfaces_west
f 31/49/18 32/50/18 30/48/18 29/47/18
g surfaces_south
f 29/47/19 30/48/19 26/41/19 25/38/19
g surfaces_ground
f 27/44/20 31/49/20 29/47/20 25/39/20
g surfaces_top
f 32/50/12 28/46/12 26/42/12 30/48/12
g surfaces_east
f 33/51/21 34/54/21 36/59/21 35/57/21
g surfaces_north
f 35/57/22 36/59/22 40/64/22 39/63/22
g surfaces_west
f 39/63/23 40/64/23 38/62/23 37/61/23
g surfaces_south
f 37/61/24 38/62/24 34/55/24 33/52/24
g surfaces_ground
f 35/58/25 39/63/25 37/61/25 33/53/25
g surfaces_top
f 40/64/26 36/60/26 34/56/26 38/62/26
g surfaces_east
f 41/65/27 42/68/27 44/73/27 43/71/27
g surfaces_north
f 43/71/28 44/73/28 48/78/28 47/77/28
g surfaces_west
f 47/77/29 48/78/29 46/76/29 45/75/29
g surfaces_south
f 45/75/30 46/76/30 42/69/30 41/66/30
g surfaces_ground
f 43/72/31 47/77/31 45/75/31 41/67/31
g surfaces_top
f 48/78/32 44/74/32 42/70/32 46/76/32
g surfaces_east
f 49/79/33 50/82/33 52/87/33 51/85/33
g surfaces_north
f 51/85/34 52/87/34 56/92/34 55/91/34
g surfaces_west
f 55/91/35 56/92/35 54/90/35 53/89/35
g surfaces_south
f 53/89/36 54/90/36 50/83/36 49/80/36
g surfaces_ground
f 51/86/37 55/91/37 53/89/37 49/81/37
g surfaces_top
f 56/92/38 52/88/38 50/84/38 54/90/38
g surfaces_east
f 57/93/39 58/96/39 60/101/39 59/99/39
g surfaces_north
f 59/99/40 60/101/40 64/106/40 63/105/40
g surfaces_west
f 63/105/41 64/106/41 62/104/41 61/103/41
g surfaces_south
f 61/103/42 62/104/42 58/97/42 57/94/42
g surfaces_ground
f 59/100/11 63/105/11 61/103/11 57/95/11
g surfaces_top
f 64/106/43 60/102/43 58/98/43 62/104/43
g surfaces_east
f 65/107/44 66/110/44 68/115/44 67/113/44
g surfaces_north
f 67/113/45 68/115/45 72/120/45 71/119/45
g surfaces_west
f 71/119/46 72/120/46 70/118/46 69/117/46
g surfaces_south
f 69/117/47 70/118/47 66/111/47 65/108/47
g surfaces_ground
f 67/114/48 71/119/48 69/117/48 65/109/48
g surfaces_top
f 72/120/49 68/116/49 66/112/49 70/118/49
g surfaces_east
f 73/121/50 74/124/50 76/129/50 75/127/50
g surfaces_north
f 75/127/51 76/129/51 80/134/51 79/133/51
g surfaces_west
f 79/133/52 80/134/52 78/132/52 77/131/52
g surfaces_south
f 77/131/53 78/132/53 74/125/53 73/122/53
g surfaces_ground
f 75/128/11 79/133/11 77/131/11 73/123/11
g surfaces_top
f 80/134/54 76/130/54 74/126/54 78/132/54
g surfaces_east
f 81/135/55 82/138/55 84/143/55 83/141/55
g surfaces_north
f 83/141/56 84/143/56 88/148/56 87/147/56
g surfaces_west
f 87/147/57 88/148/57 86/146/57 85/145/57
g surfaces_south
f 85/145/58 86/146/58 82/139/58 81/136/58
g surfaces_ground
f 83/142/11 87/147/11 85/145/11 81/137/11
g surfaces_top
f 88/148/59 84/144/59 82/140/59 86/146/59
g surfaces_east
f 89/149/55 90/152/55 92/157/55 91/155/55
g surfaces_north
f 91/155/60 92/157/60 96/162/60 95/161/60
g surfaces_west
f 95/161/61 96/162/61 94/160/61 93/159/61
g surfaces_south
f 93/159/62 94/160/62 90/153/62 89/150/62
g surfaces_ground
f 91/156/63 95/161/63 93/159/63 89/151/63
g surfaces_top
f 96/162/64 92/158/64 90/154/64 94/160/64
g surfaces_east
f 97/163/65 98/166/65 100/171/65 99/169/65
g surfaces_north
f 99/169/66 100/171/66 104/176/66 103/175/66
g surfaces_west
f 103/175/67 104/176/67 102/174/67 101/173/67
g surfaces_south
f 101/173/68 102/174/68 98/167/68 97/164/68
g surfaces_ground
f 99/170/69 103/175/69 101/173/69 97/165/69
g surfaces_top
f 104/176/70 100/172/70 98/168/70 102/174/70
g surfaces_east
f 105/177/71 106/180/71 108/185/71 107/183/71
g surfaces_north
f 107/183/72 108/185/72 112/190/72 111/189/72
g surfaces_west
f 111/189/73 112/190/73 110/188/73 109/187/73
g surfaces_south
f 109/187/74 110/188/74 106/181/74 105/178/74
g surfaces_ground
f 107/184/75 111/189/75 109/187/75 105/179/75
g surfaces_top
f 112/190/76 108/186/76 106/182/76 110/188/76
g surfaces_east
f 113/191/77 114/194/77 116/199/77 115/197/77
g surfaces_north
f 115/197/78 116/199/78 120/204/78 119/203/78
g surfaces_top
f 119/203/79 120/204/79 118/202/79 117/201/79
g surfaces_south
f 117/201/80 118/202/80 114/195/80 113/192/80
g surfaces_ground
f 115/198/11 119/203/11 117/201/11 113/193/11
g surfaces_top
f 120/204/81 116/200/81 114/196/81 118/202/81
g surfaces_east
f 121/205/55 122/208/55 124/212/55 123/210/55
g surfaces_north
f 123/210/82 124/212/82 126/215/82 125/214/82
g surfaces_west
f 125/214/83 126/215/83 122/209/83 121/206/83
g surfaces_ground
f 123/211/84 125/214/84 121/207/84
g surfaces_top
f 126/215/85 124/213/85 122/209/85
g surfaces_east
f 127/216/86 128/219/86 130/224/86 129/222/86
g surfaces_north
f 129/222/87 130/224/87 134/229/87 133/228/87
g surfaces_west
f 133/228/88 134/229/88 132/227/88 131/226/88
g surfaces_east
f 131/226/55 132/227/55 128/220/55 127/217/55
g surfaces_ground
f 129/223/89 133/228/89 131/226/89 127/218/89
g surfaces_top
f 134/229/32 130/225/32 128/221/32 132/227/32
