# Blender 3.4.1
# www.blender.org
mtllib surfaces_south.mtl
o surfaces_south
v 5.894878 -0.219899 80.403366
v 5.894880 10.000086 80.403366
v 52.354107 -0.219899 68.501755
v 52.354107 10.000096 68.501755
v -23.238892 -0.219899 87.939568
v -23.238892 52.124825 87.939613
v 5.884708 52.124851 80.403412
v 18.641109 -0.219899 -63.027431
v 18.641109 34.174301 -63.027409
v 36.031109 -0.219899 -67.657433
v 36.031109 34.134735 -67.657387
v -11.658891 -0.219899 -124.687439
v -11.658891 33.913479 -124.687386
v 5.741109 -0.219899 -129.037430
v 5.741109 34.044205 -129.037430
v -83.108894 -0.219899 21.802567
v -83.108894 34.430641 21.802603
v -72.048889 -0.219899 22.813065
v -72.048889 34.439743 22.813101
v -81.898895 -0.219899 40.822567
v -81.898895 28.707731 40.822590
v -70.898994 -0.219899 41.833168
v -70.898994 28.710220 41.833191
v -80.508888 -0.219899 78.712570
v -80.508888 23.001486 78.712570
v -69.538895 -0.219899 79.762566
v -69.538895 23.028883 79.762566
v -138.878754 -0.219899 76.420731
v -138.878754 22.838549 76.420731
v -143.781357 -0.219899 55.998268
v -126.938889 -0.219899 73.842567
v -126.938889 22.846697 73.842567
v -143.757812 28.545427 56.088604
v -138.439194 -0.219899 54.881466
v -138.439194 28.546709 54.881489
v -148.499161 -0.219899 37.901348
v -148.498764 34.260937 37.902912
v -145.500092 -0.219899 37.227264
v -145.500092 34.265320 37.227287
v -102.298889 -0.219899 -42.487434
v -102.298889 33.884811 -42.487411
v -84.438889 -0.219899 -40.487434
v -84.438889 33.885612 -40.487411
v -113.488892 -0.219899 -114.487434
v -113.488892 33.856579 -114.487389
v -95.718895 -0.219899 -112.367432
v -95.718895 33.873581 -112.367386
v -169.686279 -0.219899 -172.061630
v -169.686279 17.688938 -172.061630
v -115.295189 -0.219899 -166.574432
v -115.295189 17.965225 -166.574432
vn 0.2482 -0.0000 0.9687
vn 0.2505 -0.0000 0.9681
vn 0.2573 -0.0000 0.9663
vn 0.2425 -0.0000 0.9701
vn -0.0910 -0.0000 0.9959
vn -0.0915 -0.0000 0.9958
vn -0.0953 -0.0000 0.9955
vn 0.2111 -0.0000 0.9775
vn 0.2213 -0.0000 0.9752
vn 0.2195 -0.0000 0.9756
vn -0.1113 -0.0000 0.9938
vn -0.1185 -0.0000 0.9930
vn -0.1004 -0.0000 0.9949
vt 0.375000 1.000000
vt 0.375000 0.750000
vt 0.625000 1.000000
vt 0.375000 0.750000
vt 0.625000 0.750000
vt 0.375000 1.000000
vt 0.625000 1.000000
vt 0.625000 0.750000
vt 0.375000 1.000000
vt 0.625000 1.000000
vt 0.375000 0.750000
vt 0.625000 0.750000
vt 0.375000 1.000000
vt 0.625000 1.000000
vt 0.375000 0.750000
vt 0.625000 0.750000
vt 0.375000 1.000000
vt 0.625000 1.000000
vt 0.375000 0.750000
vt 0.625000 0.750000
vt 0.375000 1.000000
vt 0.625000 1.000000
vt 0.375000 0.750000
vt 0.625000 0.750000
vt 0.375000 1.000000
vt 0.625000 1.000000
vt 0.375000 0.750000
vt 0.625000 0.750000
vt 0.375000 1.000000
vt 0.625000 1.000000
vt 0.375000 1.000000
vt 0.375000 0.750000
vt 0.625000 0.750000
vt 0.625000 1.000000
vt 0.375000 0.750000
vt 0.625000 0.750000
vt 0.375000 1.000000
vt 0.625000 1.000000
vt 0.375000 0.750000
vt 0.625000 0.750000
vt 0.375000 1.000000
vt 0.625000 1.000000
vt 0.375000 0.750000
vt 0.625000 0.750000
vt 0.375000 1.000000
vt 0.625000 1.000000
vt 0.375000 0.750000
vt 0.625000 0.750000
vt 0.375000 1.000000
vt 0.625000 1.000000
vt 0.375000 0.750000
vt 0.625000 0.750000
s 0
f 3/4/1 4/5/1 2/3/1 1/1/1
f 1/2/2 7/8/2 6/7/2 5/6/2
f 10/11/3 11/12/3 9/10/3 8/9/3
f 14/15/4 15/16/4 13/14/4 12/13/4
f 18/19/5 19/20/5 17/18/5 16/17/5
f 22/23/6 23/24/6 21/22/6 20/21/6
f 26/27/7 27/28/7 25/26/7 24/25/7
f 31/32/8 32/33/8 29/30/8 28/29/8
f 34/35/9 35/36/9 33/34/9 30/31/9
f 38/39/10 39/40/10 37/38/10 36/37/10
f 42/43/11 43/44/11 41/42/11 40/41/11
f 46/47/12 47/48/12 45/46/12 44/45/12
f 50/51/13 51/52/13 49/50/13 48/49/13
