# Blender 3.4.1
# www.blender.org
mtllib buildings_with_streets.mtl
o buildings_with_streets
v -241.318481 -0.521113 -213.682312
v -242.885223 -0.180321 -198.108246
v -65.962425 -0.178757 -180.323303
v -42.037651 -0.178757 -38.903381
v -64.579056 -0.178757 -140.160416
v -159.240173 -0.178757 0.180764
v 93.760017 -0.178757 -66.243484
v 91.732933 -0.178757 -73.964371
v -161.267258 -0.178757 -7.540116
v -74.192482 -0.178757 -121.698273
v -53.780193 -0.178757 -35.814514
v -65.962425 -0.178757 -180.323303
v 12.214676 -0.176755 -197.184311
v -65.961716 -0.175755 -196.054794
v 8.975220 -0.176755 -212.210373
v -65.962425 -0.178757 -180.323303
v -82.219681 -0.210640 -181.958054
v -65.962425 -0.178757 -180.323303
v -40.294933 -0.178757 -31.027790
v -66.520233 -0.178757 122.850906
v -51.961517 -0.178757 -27.984831
v -50.722504 -0.178757 124.375694
v -45.567993 -0.178757 70.973503
v 25.419228 -0.178757 52.542061
v 0.968402 -0.178757 -41.881413
v 25.422802 -0.218877 52.541145
v 25.422806 10.000123 52.541145
v 2.351109 -0.218804 -36.556435
v 2.351109 10.000195 -36.556435
v 46.888287 -0.219873 47.042259
v 46.888287 10.000129 47.042259
v 23.734108 -0.219799 -42.092434
v 23.734108 10.000199 -42.092434
v 5.894878 -0.250782 80.403366
v 5.894880 10.000099 80.403366
v 0.429089 -0.218883 58.943871
v 0.429089 10.000118 58.943871
v 52.354107 -0.218889 68.501755
v 52.354107 10.000108 68.501755
v 46.888287 -0.217873 47.042259
v 46.888287 10.000129 47.042259
v -23.238892 -0.218903 87.939568
v -23.238892 52.124840 87.939606
v -28.765892 -0.218903 66.579567
v -28.765892 52.124863 66.579605
v 5.884708 -0.218883 80.403366
v 5.884708 52.124863 80.403404
v 0.429090 -0.250782 58.943871
v 0.429090 52.124863 58.943916
v 18.641109 -0.218804 -63.027431
v 18.641109 34.174290 -63.027412
v 5.956993 -0.219799 -113.098114
v 5.791107 34.133961 -113.057396
v 36.031109 -0.219799 -67.657433
v 36.031109 34.134724 -67.657394
v 23.271109 -0.219799 -117.347427
v 23.271109 34.111462 -117.347397
v -11.658891 -0.219799 -124.687439
v -11.658891 33.913460 -124.687393
v -24.418892 -0.219799 -174.447433
v -24.418892 34.010601 -174.447433
v 5.741109 -0.219799 -129.037430
v 5.741109 34.044182 -129.037430
v -7.098890 -0.219799 -178.887436
v -7.098891 33.902020 -178.887436
v -83.108894 -0.218903 21.802567
v -83.108894 34.430645 21.802597
v -79.498894 -0.218903 -15.607433
v -79.498894 34.405087 -15.607405
v -72.048889 -0.218903 22.813065
v -72.048889 34.439747 22.813095
v -68.588890 -0.218903 -14.527432
v -68.588890 34.415787 -14.527406
v -81.898895 -0.218903 40.822567
v -81.898895 28.707737 40.822586
v -80.058792 -0.218903 22.081268
v -80.058792 28.697247 22.081284
v -70.898994 -0.218903 41.833168
v -70.898994 28.710228 41.833187
v -69.098892 -0.218903 23.082565
v -69.098892 28.699745 23.082588
v -80.508888 -0.218903 78.712570
v -80.508888 23.001499 78.712570
v -76.928589 -0.218903 41.279167
v -76.928589 22.978527 41.279186
v -69.538895 -0.218903 79.762566
v -69.538895 23.028896 79.762566
v -65.898895 -0.218903 42.292568
v -65.898895 23.002525 42.292587
v -138.878754 -0.110859 76.420731
v -138.878754 22.838562 76.420731
v -143.781357 -0.110859 56.088581
v -143.781357 22.818218 56.088596
v -126.938889 -0.110859 73.842567
v -126.938889 22.846708 73.842567
v -131.658890 -0.110859 53.342567
v -131.658890 22.826418 53.342587
v -143.757812 -0.110859 56.088581
v -143.757812 28.545437 56.088600
v -148.499161 -0.110844 37.901348
v -148.499161 28.539600 37.901367
v -138.439194 -0.110859 54.881466
v -138.439194 28.546719 54.881485
v -142.638885 -0.110844 36.582565
v -142.638885 28.541035 36.582584
v -148.499161 -0.108351 37.901348
v -148.498764 34.260944 37.902908
v -155.782379 -0.218903 9.963821
v -155.782379 34.255821 9.963851
v -145.500092 -0.110844 37.227264
v -145.500092 34.265327 37.227283
v -151.970551 -0.218903 8.970093
v -151.970551 34.261982 8.970115
v -102.298889 -0.218903 -42.487434
v -102.298889 33.884804 -42.487415
v -96.108894 -0.218903 -93.577431
v -96.108894 33.874344 -93.577393
v -84.438889 -0.218903 -40.487434
v -84.438889 33.885605 -40.487415
v -78.218895 -0.218903 -91.577431
v -78.218895 34.194141 -91.577393
v -113.488892 -0.218903 -114.487434
v -113.488892 33.856560 -114.487396
v -107.268890 -0.218903 -165.637436
v -107.268890 33.874100 -165.637436
v -95.718895 -0.218903 -112.367432
v -95.718895 33.873562 -112.367393
v -89.498894 -0.218903 -163.517441
v -89.498894 33.899300 -163.517441
v -169.686279 -0.218903 -172.061630
v -169.686279 17.688910 -172.061630
v -168.230896 -0.218903 -186.651428
v -168.230896 18.224718 -186.651428
v -115.295189 -0.218903 -166.574432
v -115.295189 17.965199 -166.574432
v -113.847992 -0.218903 -181.202637
v -113.847992 18.306410 -181.202637
v -173.210571 -0.218903 -56.888504
v -173.210571 36.066444 -56.888466
v -181.888535 -0.218903 -90.176086
v -181.888535 36.041344 -90.176056
v -169.163803 -0.218903 -89.247437
v -169.163803 36.025841 -89.247406
v -198.793869 -0.218903 -155.022858
v -198.793869 33.295799 -155.022858
v -197.978897 -0.218903 -161.577438
v -197.978897 33.308399 -161.577438
v -186.830994 -0.218903 -109.134766
v -186.830994 33.333878 -109.134727
v -180.578888 -0.218903 -159.417435
v -180.578888 33.307899 -159.417435
vn 0.0001 0.9999 -0.0108
vn 0.0047 -0.9998 0.0217
vn 0.0014 -1.0000 0.0002
vn -0.0000 -1.0000 -0.0000
vn -0.9681 -0.0000 0.2507
vn -0.2506 -0.0000 -0.9681
vn 0.9679 -0.0000 -0.2514
vn 0.2482 -0.0000 0.9687
vn -0.0000 1.0000 -0.0000
vn -0.9691 -0.0000 0.2468
vn -0.2482 -0.0000 -0.9687
vn 0.9691 -0.0000 -0.2468
vn 0.0001 -1.0000 -0.0008
vn -0.9681 -0.0000 0.2505
vn -0.2530 -0.0000 -0.9675
vn 0.9692 -0.0000 -0.2464
vn 0.2505 -0.0000 0.9681
vn -0.0003 -1.0000 0.0008
vn -0.9690 -0.0025 0.2472
vn -0.2384 -0.0000 -0.9712
vn 0.9686 -0.0000 -0.2487
vn 0.2573 -0.0000 0.9663
vn 0.0015 1.0000 -0.0010
vn -0.9687 -0.0000 0.2484
vn -0.2483 -0.0000 -0.9687
vn 0.9684 -0.0000 -0.2494
vn 0.2425 -0.0000 0.9701
vn -0.0007 1.0000 -0.0003
vn -0.9954 -0.0000 -0.0961
vn 0.0985 -0.0000 -0.9951
vn 0.9957 -0.0000 0.0923
vn -0.0910 -0.0000 0.9959
vn -0.0008 1.0000 -0.0007
vn -0.9952 -0.0000 -0.0977
vn 0.0910 -0.0000 -0.9959
vn 0.9954 -0.0000 0.0956
vn -0.0915 -0.0000 0.9958
vn -0.0002 1.0000 -0.0006
vn -0.9955 -0.0000 -0.0952
vn 0.0915 -0.0000 -0.9958
vn 0.9953 -0.0000 0.0967
vn -0.0953 -0.0000 0.9955
vn -0.0023 1.0000 -0.0009
vn -0.9721 -0.0000 0.2344
vn -0.2209 -0.0000 -0.9753
vn 0.9745 -0.0000 -0.2244
vn 0.2111 -0.0000 0.9775
vn -0.0009 1.0000 -0.0008
vn -0.9677 -0.0000 0.2523
vn -0.2195 -0.0000 -0.9756
vn 0.9747 -0.0000 -0.2237
vn 0.2213 -0.0000 0.9752
vn -0.0003 1.0000 -0.0002
vn -0.2523 -0.0000 -0.9677
vn 0.9748 -0.0000 -0.2232
vn 0.2195 -0.0000 0.9756
vn 0.0006 -1.0000 0.0038
vn -0.0015 1.0000 0.0002
vn -0.9927 -0.0000 -0.1203
vn 0.1111 -0.0000 -0.9938
vn 0.9927 -0.0000 0.1209
vn -0.1113 -0.0000 0.9938
vn -0.0092 1.0000 0.0018
vn -0.9927 -0.0000 -0.1207
vn 0.1185 -0.0000 -0.9930
vn 0.9927 -0.0000 0.1207
vn -0.1185 -0.0000 0.9930
vn -0.0012 1.0000 0.0003
vn -0.9951 -0.0000 -0.0993
vn 0.0997 -0.0000 -0.9950
vn 0.9951 -0.0000 0.0985
vn -0.1004 -0.0000 0.9949
vn -0.0062 0.9995 0.0294
vn 0.0728 -0.0000 -0.9973
vn 0.9923 -0.0000 0.1241
vn 0.0013 1.0000 -0.0011
vn -0.9924 -0.0000 -0.1234
vn 0.1232 -0.0000 -0.9924
vn 0.9924 -0.0000 0.1234
vt 0.000000 0.000000
vt 0.000000 0.000000
vt 0.000000 0.000000
vt 0.000000 1.000000
vt 0.000000 0.000000
vt 0.000000 0.000000
vt 0.000000 0.000000
vt 0.000000 0.000000
vt 0.000000 1.000000
vt 0.000000 0.000000
vt 0.000000 0.000000
vt 0.000000 0.000000
vt 0.000000 0.000000
vt 0.000000 0.000000
vt 0.000000 0.000000
vt 0.000000 0.000000
vt 0.000000 0.000000
vt 0.000000 0.000000
vt 0.000000 0.000000
vt 0.000000 0.000000
vt 0.000000 0.000000
vt 0.000000 0.000000
vt 0.000000 0.000000
vt 0.375000 0.000000
vt 0.375000 1.000000
vt 0.125000 0.750000
vt 0.625000 0.000000
vt 0.625000 1.000000
vt 0.875000 0.750000
vt 0.375000 0.250000
vt 0.125000 0.500000
vt 0.625000 0.250000
vt 0.875000 0.500000
vt 0.375000 0.750000
vt 0.625000 0.750000
vt 0.375000 0.500000
vt 0.625000 0.500000
vt 0.375000 0.000000
vt 0.375000 1.000000
vt 0.125000 0.750000
vt 0.625000 0.000000
vt 0.625000 1.000000
vt 0.875000 0.750000
vt 0.375000 0.250000
vt 0.125000 0.500000
vt 0.625000 0.250000
vt 0.875000 0.500000
vt 0.375000 0.750000
vt 0.625000 0.750000
vt 0.375000 0.500000
vt 0.625000 0.500000
vt 0.375000 0.000000
vt 0.375000 1.000000
vt 0.125000 0.750000
vt 0.625000 0.000000
vt 0.625000 1.000000
vt 0.875000 0.750000
vt 0.375000 0.250000
vt 0.125000 0.500000
vt 0.625000 0.250000
vt 0.875000 0.500000
vt 0.375000 0.750000
vt 0.625000 0.750000
vt 0.375000 0.500000
vt 0.625000 0.500000
vt 0.375000 0.000000
vt 0.375000 1.000000
vt 0.125000 0.750000
vt 0.625000 0.000000
vt 0.625000 1.000000
vt 0.875000 0.750000
vt 0.375000 0.250000
vt 0.125000 0.500000
vt 0.625000 0.250000
vt 0.875000 0.500000
vt 0.375000 0.750000
vt 0.625000 0.750000
vt 0.375000 0.500000
vt 0.625000 0.500000
vt 0.375000 0.000000
vt 0.375000 1.000000
vt 0.125000 0.750000
vt 0.625000 0.000000
vt 0.625000 1.000000
vt 0.875000 0.750000
vt 0.375000 0.250000
vt 0.125000 0.500000
vt 0.625000 0.250000
vt 0.875000 0.500000
vt 0.375000 0.750000
vt 0.625000 0.750000
vt 0.375000 0.500000
vt 0.625000 0.500000
vt 0.375000 0.000000
vt 0.375000 1.000000
vt 0.125000 0.750000
vt 0.625000 0.000000
vt 0.625000 1.000000
vt 0.875000 0.750000
vt 0.375000 0.250000
vt 0.125000 0.500000
vt 0.625000 0.250000
vt 0.875000 0.500000
vt 0.375000 0.750000
vt 0.625000 0.750000
vt 0.375000 0.500000
vt 0.625000 0.500000
vt 0.375000 0.000000
vt 0.375000 1.000000
vt 0.125000 0.750000
vt 0.625000 0.000000
vt 0.625000 1.000000
vt 0.875000 0.750000
vt 0.375000 0.250000
vt 0.125000 0.500000
vt 0.625000 0.250000
vt 0.875000 0.500000
vt 0.375000 0.750000
vt 0.625000 0.750000
vt 0.375000 0.500000
vt 0.625000 0.500000
vt 0.375000 0.000000
vt 0.375000 1.000000
vt 0.125000 0.750000
vt 0.625000 0.000000
vt 0.625000 1.000000
vt 0.875000 0.750000
vt 0.375000 0.250000
vt 0.125000 0.500000
vt 0.625000 0.250000
vt 0.875000 0.500000
vt 0.375000 0.750000
vt 0.625000 0.750000
vt 0.375000 0.500000
vt 0.625000 0.500000
vt 0.375000 0.000000
vt 0.375000 1.000000
vt 0.125000 0.750000
vt 0.625000 0.000000
vt 0.625000 1.000000
vt 0.875000 0.750000
vt 0.375000 0.250000
vt 0.125000 0.500000
vt 0.625000 0.250000
vt 0.875000 0.500000
vt 0.375000 0.750000
vt 0.625000 0.750000
vt 0.375000 0.500000
vt 0.625000 0.500000
vt 0.375000 0.000000
vt 0.375000 1.000000
vt 0.125000 0.750000
vt 0.625000 0.000000
vt 0.625000 1.000000
vt 0.875000 0.750000
vt 0.375000 0.250000
vt 0.125000 0.500000
vt 0.625000 0.250000
vt 0.875000 0.500000
vt 0.375000 0.750000
vt 0.625000 0.750000
vt 0.375000 0.500000
vt 0.625000 0.500000
vt 0.375000 0.000000
vt 0.375000 1.000000
vt 0.125000 0.750000
vt 0.625000 0.000000
vt 0.625000 1.000000
vt 0.875000 0.750000
vt 0.375000 0.250000
vt 0.125000 0.500000
vt 0.625000 0.250000
vt 0.875000 0.500000
vt 0.375000 0.750000
vt 0.625000 0.750000
vt 0.375000 0.500000
vt 0.625000 0.500000
vt 0.375000 0.000000
vt 0.375000 1.000000
vt 0.125000 0.750000
vt 0.625000 0.000000
vt 0.625000 1.000000
vt 0.875000 0.750000
vt 0.375000 0.250000
vt 0.125000 0.500000
vt 0.625000 0.250000
vt 0.875000 0.500000
vt 0.375000 0.750000
vt 0.625000 0.750000
vt 0.375000 0.500000
vt 0.625000 0.500000
vt 0.375000 0.000000
vt 0.375000 1.000000
vt 0.125000 0.750000
vt 0.625000 0.000000
vt 0.625000 1.000000
vt 0.875000 0.750000
vt 0.375000 0.250000
vt 0.125000 0.500000
vt 0.625000 0.250000
vt 0.875000 0.500000
vt 0.375000 0.750000
vt 0.625000 0.750000
vt 0.375000 0.500000
vt 0.625000 0.500000
vt 0.375000 0.000000
vt 0.375000 1.000000
vt 0.125000 0.750000
vt 0.625000 0.000000
vt 0.625000 1.000000
vt 0.875000 0.750000
vt 0.375000 0.250000
vt 0.125000 0.500000
vt 0.625000 0.250000
vt 0.875000 0.500000
vt 0.375000 0.750000
vt 0.625000 0.750000
vt 0.375000 0.500000
vt 0.625000 0.500000
vt 0.375000 0.000000
vt 0.375000 0.750000
vt 0.125000 0.750000
vt 0.625000 0.000000
vt 0.625000 0.750000
vt 0.375000 0.250000
vt 0.125000 0.500000
vt 0.625000 0.250000
vt 0.875000 0.500000
vt 0.375000 0.500000
vt 0.625000 0.500000
vt 0.375000 0.000000
vt 0.375000 1.000000
vt 0.125000 0.750000
vt 0.625000 0.000000
vt 0.625000 1.000000
vt 0.875000 0.750000
vt 0.375000 0.250000
vt 0.125000 0.500000
vt 0.625000 0.250000
vt 0.875000 0.500000
vt 0.375000 0.750000
vt 0.625000 0.750000
vt 0.375000 0.500000
vt 0.625000 0.500000
s 0
g streets
f 1/1/1 2/2/1 18/16/1 14/13/1
f 13/12/2 12/11/2 14/13/2 15/14/2
f 10/9/3 17/15/3 18/16/3 5/4/3
f 11/10/4 10/9/4 5/4/4 4/3/4
f 20/18/4 21/19/4 19/17/4 23/21/4 22/20/4
g platz
f 24/22/4 23/21/4 19/17/4 25/23/4
g streets
f 11/10/4 4/3/4 19/17/4 21/19/4
f 9/8/4 11/10/4 21/19/4 6/5/4
f 8/7/4 7/6/4 19/17/4 4/3/4
g surfaces_east
f 26/24/5 27/27/5 29/32/5 28/30/5
g surfaces_north
f 28/30/6 29/32/6 33/37/6 32/36/6
g surfaces_west
f 32/36/7 33/37/7 31/35/7 30/34/7
g surfaces_top
f 30/34/8 31/35/8 27/28/8 26/25/8
g surfaces_ground
f 28/31/4 32/36/4 30/34/4 26/26/4
g surfaces_top
f 33/37/9 29/33/9 27/29/9 31/35/9
f 34/38/10 35/41/10 37/46/10 36/44/10
g surfaces_north
f 36/44/11 37/46/11 41/51/11 40/50/11
g surfaces_west
f 40/50/12 41/51/12 39/49/12 38/48/12
g surfaces_south
f 38/48/8 39/49/8 35/42/8 34/39/8
g surfaces_ground
f 36/45/13 40/50/13 38/48/13 34/40/13
g surfaces_top
f 41/51/9 37/47/9 35/43/9 39/49/9
g surfaces_east
f 42/52/14 43/55/14 45/60/14 44/58/14
g surfaces_north
f 44/58/15 45/60/15 49/65/15 48/64/15
g surfaces_west
f 48/64/16 49/65/16 47/63/16 46/62/16
g surfaces_south
f 46/62/17 47/63/17 43/56/17 42/53/17
g surfaces_ground
f 44/59/18 48/64/18 46/62/18 42/54/18
g surfaces_top
f 49/65/9 45/61/9 43/57/9 47/63/9
g surfaces_east
f 50/66/19 51/69/19 53/74/19 52/72/19
g surfaces_north
f 52/72/20 53/74/20 57/79/20 56/78/20
g surfaces_west
f 56/78/21 57/79/21 55/77/21 54/76/21
g surfaces_south
f 54/76/22 55/77/22 51/70/22 50/67/22
g surfaces_ground
f 52/73/4 56/78/4 54/76/4 50/68/4
g surfaces_top
f 57/79/23 53/75/23 51/71/23 55/77/23
g surfaces_east
f 58/80/24 59/83/24 61/88/24 60/86/24
g surfaces_north
f 60/86/25 61/88/25 65/93/25 64/92/25
g surfaces_west
f 64/92/26 65/93/26 63/91/26 62/90/26
g surfaces_south
f 62/90/27 63/91/27 59/84/27 58/81/27
g surfaces_ground
f 60/87/4 64/92/4 62/90/4 58/82/4
g surfaces_top
f 65/93/28 61/89/28 59/85/28 63/91/28
g surfaces_east
f 66/94/29 67/97/29 69/102/29 68/100/29
g surfaces_north
f 68/100/30 69/102/30 73/107/30 72/106/30
g surfaces_west
f 72/106/31 73/107/31 71/105/31 70/104/31
g surfaces_south
f 70/104/32 71/105/32 67/98/32 66/95/32
g surfaces_ground
f 68/101/4 72/106/4 70/104/4 66/96/4
g surfaces_top
f 73/107/33 69/103/33 67/99/33 71/105/33
g surfaces_east
f 74/108/34 75/111/34 77/116/34 76/114/34
g surfaces_north
f 76/114/35 77/116/35 81/121/35 80/120/35
g surfaces_west
f 80/120/36 81/121/36 79/119/36 78/118/36
g surfaces_south
f 78/118/37 79/119/37 75/112/37 74/109/37
g surfaces_ground
f 76/115/4 80/120/4 78/118/4 74/110/4
g surfaces_top
f 81/121/38 77/117/38 75/113/38 79/119/38
g surfaces_east
f 82/122/39 83/125/39 85/130/39 84/128/39
g surfaces_north
f 84/128/40 85/130/40 89/135/40 88/134/40
g surfaces_west
f 88/134/41 89/135/41 87/133/41 86/132/41
g surfaces_south
f 86/132/42 87/133/42 83/126/42 82/123/42
g surfaces_ground
f 84/129/4 88/134/4 86/132/4 82/124/4
g surfaces_top
f 89/135/43 85/131/43 83/127/43 87/133/43
g surfaces_east
f 90/136/44 91/139/44 93/144/44 92/142/44
g surfaces_north
f 92/142/45 93/144/45 97/149/45 96/148/45
g surfaces_west
f 96/148/46 97/149/46 95/147/46 94/146/46
g surfaces_south
f 94/146/47 95/147/47 91/140/47 90/137/47
g surfaces_ground
f 92/143/4 96/148/4 94/146/4 90/138/4
g surfaces_top
f 97/149/48 93/145/48 91/141/48 95/147/48
g surfaces_east
f 98/150/49 99/153/49 101/158/49 100/156/49
g surfaces_north
f 100/156/50 101/158/50 105/163/50 104/162/50
g surfaces_west
f 104/162/51 105/163/51 103/161/51 102/160/51
g surfaces_south
f 102/160/52 103/161/52 99/154/52 98/151/52
g surfaces_ground
f 100/157/4 104/162/4 102/160/4 98/152/4
g surfaces_top
f 105/163/53 101/159/53 99/155/53 103/161/53
g surfaces_east
f 106/164/49 107/167/49 109/172/49 108/170/49
g surfaces_north
f 108/170/54 109/172/54 113/177/54 112/176/54
g surfaces_west
f 112/176/55 113/177/55 111/175/55 110/174/55
g surfaces_south
f 110/174/56 111/175/56 107/168/56 106/165/56
g surfaces_ground
f 108/171/57 112/176/57 110/174/57 106/166/57
g surfaces_top
f 113/177/58 109/173/58 107/169/58 111/175/58
g surfaces_east
f 114/178/59 115/181/59 117/186/59 116/184/59
g surfaces_north
f 116/184/60 117/186/60 121/191/60 120/190/60
g surfaces_west
f 120/190/61 121/191/61 119/189/61 118/188/61
g surfaces_south
f 118/188/62 119/189/62 115/182/62 114/179/62
g surfaces_ground
f 116/185/4 120/190/4 118/188/4 114/180/4
g surfaces_top
f 121/191/63 117/187/63 115/183/63 119/189/63
g surfaces_east
f 122/192/64 123/195/64 125/200/64 124/198/64
g surfaces_north
f 124/198/65 125/200/65 129/205/65 128/204/65
g surfaces_west
f 128/204/66 129/205/66 127/203/66 126/202/66
g surfaces_south
f 126/202/67 127/203/67 123/196/67 122/193/67
g surfaces_ground
f 124/199/4 128/204/4 126/202/4 122/194/4
g surfaces_top
f 129/205/68 125/201/68 123/197/68 127/203/68
g surfaces_east
f 130/206/69 131/209/69 133/214/69 132/212/69
g surfaces_north
f 132/212/70 133/214/70 137/219/70 136/218/70
g surfaces_top
f 136/218/71 137/219/71 135/217/71 134/216/71
g surfaces_south
f 134/216/72 135/217/72 131/210/72 130/207/72
g surfaces_ground
f 132/213/4 136/218/4 134/216/4 130/208/4
g surfaces_top
f 137/219/73 133/215/73 131/211/73 135/217/73
g surfaces_east
f 138/220/49 139/223/49 141/227/49 140/225/49
g surfaces_north
f 140/225/74 141/227/74 143/230/74 142/229/74
g surfaces_west
f 142/229/75 143/230/75 139/224/75 138/221/75
g surfaces_ground
f 140/226/4 142/229/4 138/222/4
g surfaces_top
f 143/230/76 141/228/76 139/224/76
g surfaces_east
f 144/231/77 145/234/77 147/239/77 146/237/77
g surfaces_north
f 146/237/78 147/239/78 151/244/78 150/243/78
g surfaces_west
f 150/243/79 151/244/79 149/242/79 148/241/79
g surfaces_east
f 148/241/49 149/242/49 145/235/49 144/232/49
g surfaces_ground
f 146/238/4 150/243/4 148/241/4 144/233/4
g surfaces_top
f 151/244/28 147/240/28 145/236/28 149/242/28
l 7 25
l 2 3
l 16 17
