# Blender 3.4.1
# www.blender.org
mtllib surfaces_west.mtl
o surfaces_west
v 25.422796 -0.219899 52.541145
v 25.422808 10.000114 52.498772
v 2.351109 -0.219899 -36.556435
v 2.351109 10.000200 -36.556435
v -23.238892 -0.219899 87.939568
v -23.238892 52.124825 87.939613
v -28.765892 -0.219899 66.579567
v -28.765892 52.124851 66.579613
v 18.641109 -0.219899 -63.027431
v 18.641109 34.174301 -63.027409
v 5.956993 -0.219899 -113.098114
v 5.791107 34.133980 -113.057388
v -11.658891 -0.219899 -124.687439
v -11.658891 33.913479 -124.687386
v -24.418892 -0.219899 -174.447433
v -24.418892 34.010628 -174.447433
v -83.108894 -0.219899 21.802567
v -83.108894 34.430641 21.802603
v -79.498894 -0.219899 -15.607433
v -79.498894 34.405090 -15.607399
v -81.898895 -0.219899 40.822567
v -81.898895 28.707731 40.822590
v -80.058792 -0.219899 22.081268
v -80.058792 28.697243 22.081287
v -80.508888 -0.219899 78.712570
v -80.508888 23.001486 78.712570
v -76.928589 -0.219899 41.279167
v -76.928589 22.978519 41.279190
v -138.878754 -0.219899 76.420731
v -138.878754 22.838549 76.420731
v -143.781357 -0.219899 55.998268
v -143.781357 22.818209 55.998291
v -143.757812 28.545427 56.088604
v -148.499161 28.539595 37.901371
v -148.499161 -0.219899 37.901348
v -148.498764 34.260937 37.902912
v -155.782379 -0.219899 9.963821
v -155.782379 34.255821 9.963857
v -102.298889 -0.219899 -42.487434
v -102.298889 33.884811 -42.487411
v -96.108894 -0.219899 -93.577431
v -96.108894 33.874359 -93.577385
v -113.488892 -0.219899 -114.487434
v -113.488892 33.856579 -114.487389
v -107.268890 -0.219899 -165.637436
v -107.268890 33.874126 -165.637436
v -169.686279 -0.219899 -172.061630
v -169.686279 17.688938 -172.061630
v -168.230896 -0.219899 -186.651428
v -168.230896 18.224749 -186.651428
v -173.210571 -0.219899 -56.888504
v -173.210571 36.066452 -56.888458
v -181.888535 -0.219899 -90.176086
v -181.888535 36.041359 -90.176048
v -198.793869 -0.219899 -155.022858
v -198.793869 33.295826 -155.022858
v -197.978897 -0.219899 -161.577438
v -197.978897 33.308426 -161.577438
v -186.830994 -0.219899 -109.134766
v -186.830994 33.333897 -109.134720
vn -0.9681 0.0005 0.2507
vn -0.9681 -0.0000 0.2505
vn -0.9690 -0.0025 0.2472
vn -0.9687 -0.0000 0.2484
vn -0.9954 -0.0000 -0.0961
vn -0.9952 -0.0000 -0.0977
vn -0.9955 -0.0000 -0.0952
vn -0.9724 -0.0000 0.2334
vn -0.9677 -0.0000 0.2523
vn -0.9927 -0.0000 -0.1203
vn -0.9927 -0.0000 -0.1207
vn -0.9951 -0.0000 -0.0993
vn -0.9924 -0.0000 -0.1234
vt 0.375000 0.000000
vt 0.625000 0.000000
vt 0.375000 0.250000
vt 0.625000 0.250000
vt 0.375000 0.000000
vt 0.625000 0.000000
vt 0.375000 0.250000
vt 0.625000 0.250000
vt 0.375000 0.000000
vt 0.625000 0.000000
vt 0.375000 0.250000
vt 0.625000 0.250000
vt 0.375000 0.000000
vt 0.625000 0.000000
vt 0.375000 0.250000
vt 0.625000 0.250000
vt 0.375000 0.000000
vt 0.625000 0.000000
vt 0.375000 0.250000
vt 0.625000 0.250000
vt 0.375000 0.000000
vt 0.625000 0.000000
vt 0.375000 0.250000
vt 0.625000 0.250000
vt 0.375000 0.000000
vt 0.625000 0.000000
vt 0.375000 0.250000
vt 0.625000 0.250000
vt 0.375000 0.000000
vt 0.625000 0.000000
vt 0.375000 0.250000
vt 0.375000 0.000000
vt 0.625000 0.250000
vt 0.625000 0.000000
vt 0.625000 0.250000
vt 0.375000 0.250000
vt 0.375000 0.000000
vt 0.625000 0.000000
vt 0.375000 0.250000
vt 0.625000 0.250000
vt 0.375000 0.000000
vt 0.625000 0.000000
vt 0.375000 0.250000
vt 0.625000 0.250000
vt 0.375000 0.000000
vt 0.625000 0.000000
vt 0.375000 0.250000
vt 0.625000 0.250000
vt 0.375000 0.000000
vt 0.625000 0.000000
vt 0.375000 0.250000
vt 0.625000 0.250000
vt 0.375000 0.000000
vt 0.625000 0.000000
vt 0.375000 0.250000
vt 0.625000 0.250000
vt 0.375000 0.000000
vt 0.375000 1.000000
vt 0.625000 0.000000
vt 0.625000 1.000000
vt 0.375000 0.250000
vt 0.625000 0.250000
vt 0.375000 0.750000
vt 0.625000 0.750000
s 0
f 1/1/1 2/2/1 4/4/1 3/3/1
f 5/5/2 6/6/2 8/8/2 7/7/2
f 9/9/3 10/10/3 12/12/3 11/11/3
f 13/13/4 14/14/4 16/16/4 15/15/4
f 17/17/5 18/18/5 20/20/5 19/19/5
f 21/21/6 22/22/6 24/24/6 23/23/6
f 25/25/7 26/26/7 28/28/7 27/27/7
f 29/29/8 30/30/8 32/33/8 31/31/8
f 31/32/9 33/34/9 34/35/9 35/36/9
f 35/37/9 36/38/9 38/40/9 37/39/9
f 39/41/10 40/42/10 42/44/10 41/43/10
f 43/45/11 44/46/11 46/48/11 45/47/11
f 47/49/12 48/50/12 50/52/12 49/51/12
f 51/53/9 52/54/9 54/56/9 53/55/9
f 55/57/13 56/59/13 58/62/13 57/61/13
f 59/63/9 60/64/9 56/60/9 55/58/9
